<?xml version="1.0" standalone="no"?>
<!DOCTYPE svg PUBLIC "-//W3C//DTD SVG 1.1//EN" "http://www.w3.org/Graphics/SVG/1.1/DTD/svg11.dtd" >
<svg xmlns="http://www.w3.org/2000/svg">
<metadata></metadata>
<defs>
<font id="sukhumvit_settext" horiz-adv-x="0" >
<font-face units-per-em="2048" ascent="1638" descent="-410" />
<missing-glyph horiz-adv-x="596" />
<glyph unicode="&#xe2f;&#xe2f;" horiz-adv-x="1681" d="M88 1208v88h169v-90q0 -160 59 -239t188 -79q71 0 142.5 33t125.5 85t88 117t34 131v42h164v-410q57 20 107 62.5t87 93.5t59 106t22 106v42h167v-1296h-177v976q-35 -74 -104 -134t-161 -92v-750h-177v976q-22 -48 -64 -89.5t-96 -72t-118 -47.5t-133 -17 q-104 0 -177 33.5t-118 94.5t-66 144.5t-21 185.5z" />
<glyph unicode="&#xe4f;&#x22;" horiz-adv-x="1263" d="M139 556q0 102 38 191.5t105 157t157.5 106t192.5 38.5q101 0 191.5 -38.5t158 -106t105 -157t37.5 -191.5t-37.5 -192.5t-105 -157.5t-158 -106.5t-191.5 -39.5q-102 0 -192.5 39.5t-157.5 106.5t-105 157t-38 193zM210 556q0 -88 34 -164.5t90.5 -134.5t133 -90.5 t164.5 -32.5t164 32.5t134 90.5t90.5 134.5t32.5 164.5q0 86 -32.5 163.5t-90.5 134t-134 89.5t-164 33t-164.5 -33t-133 -89.5t-90.5 -134.5t-34 -163zM349 553q0 59 22 110.5t60.5 89.5t89.5 60t108 22q58 0 110 -22t90.5 -60t60.5 -88.5t22 -108.5q0 -60 -22 -111.5 t-60.5 -88t-89.5 -58.5t-108 -22q-60 0 -111 22t-89.5 60t-60.5 87.5t-22 107.5zM419 1590h139l-21 -453h-97zM461 553q0 -67 49.5 -118t121.5 -51q69 0 118 48.5t49 123.5q0 67 -48.5 116.5t-121.5 49.5q-66 0 -117 -49.5t-51 -119.5zM711 1590h139l-22 -453h-97z" />
<glyph unicode="&#xe24;&#xe32;" horiz-adv-x="2195" d="M115 935q21 71 72 141t126.5 123t170.5 85t203 32q139 0 240.5 -41t169.5 -118q79 65 186.5 112t239.5 47q118 0 210.5 -36.5t156.5 -103.5t96 -159t32 -200v-1280h-176v1280q0 172 -85.5 260.5t-241.5 88.5q-110 0 -195.5 -38t-144.5 -99q21 -46 30.5 -100t9.5 -112 v-1280h-175v1280q0 172 -90.5 260.5t-262.5 88.5q-137 0 -241 -61t-145 -158l187 -172q-132 -60 -132 -208v-357q0 -64 61 -64h124v-146h-168q-91 0 -141.5 54t-50.5 143v344q0 75 33 137t96 93z" />
<glyph unicode="&#xe26;&#xe32;" horiz-adv-x="2204" d="M75 0v146h95q32 0 44.5 16.5t12.5 45.5v322q0 71 34.5 134t94.5 93l-222 173q21 71 72 142.5t126 124.5t171 86t206 33q136 0 235.5 -40t166.5 -114q81 62 186 108t238 46q117 0 209.5 -36.5t155.5 -103.5t95 -159t32 -200v-1280h-176v1280q0 172 -85.5 260.5 t-239.5 88.5q-107 0 -192.5 -38t-143.5 -96q42 -97 42 -215v-1280h-177v1280q0 172 -89 260.5t-257 88.5q-139 0 -244 -63t-143 -158l215 -183q-135 -58 -135 -209v-359q0 -90 -52 -142t-140 -52h-135z" />
<glyph unicode="fi" horiz-adv-x="1237" d="M42 979v139h178v32q0 95 24.5 175t75.5 136.5t128 88t184 31.5q88 0 161 -20t121 -46l-39 -124q-47 26 -108 38.5t-126 12.5q-144 0 -199.5 -81t-55.5 -213v-30h667v-1118h-172v979h-495v-979h-166v979h-178z" />
<glyph unicode="fl" horiz-adv-x="1314" d="M42 976v142h176v32q0 91 32 169.5t94.5 136t155 91.5t215.5 34q109 0 214 -23t200 -63v-1495h-173v1407q-53 18 -109 26.5t-132 8.5q-166 0 -248.5 -82.5t-82.5 -211.5v-30h329v-142h-329v-976h-166v976h-176z" />
<glyph unicode=" "  horiz-adv-x="596" />
<glyph unicode="&#x09;" horiz-adv-x="596" />
<glyph unicode="&#xa0;" horiz-adv-x="596" />
<glyph unicode="!" horiz-adv-x="572" d="M157 106q0 53 34 90.5t96 37.5t96 -37.5t34 -90.5t-34 -89.5t-96 -36.5t-96 36.5t-34 89.5zM199 1206v353h178v-353l-26 -771h-126z" />
<glyph unicode="&#x22;" horiz-adv-x="760" d="M139 1592h157l-23 -546h-111zM466 1592h157l-24 -546h-109z" />
<glyph unicode="#" horiz-adv-x="1309" d="M64 468v124h243q16 79 33.5 159t34.5 159h-216v124h243l102 470h146l-102 -470h336l101 470h146l-102 -470h216v-124h-240l-70 -318h215v-124h-240q-26 -118 -51.5 -234t-50.5 -234h-148q26 118 51 233.5t51 234.5h-334q-26 -118 -51.5 -234t-49.5 -234h-148 q26 118 50.5 233.5t50.5 234.5h-216zM451 592h338l70 318h-338z" />
<glyph unicode="$" horiz-adv-x="1309" d="M166 64l44 142q67 -33 161.5 -54.5t218.5 -21.5v568q-69 23 -144 54.5t-137 80t-100.5 120.5t-38.5 176q0 77 24 144t76 119t131.5 85.5t188.5 43.5v215h119v-210q101 -5 186.5 -27t155.5 -57l-42 -139q-62 28 -141 46t-159 23v-544q76 -26 151 -58t135 -82t98 -120.5 t38 -171.5q0 -186 -116.5 -286.5t-305.5 -123.5v-218h-119v212q-153 0 -252.5 24t-171.5 60zM327 1131q0 -55 20.5 -95t55 -70.5t83 -53t104.5 -42.5v495q-137 -14 -200 -75.5t-63 -158.5zM709 139q117 18 190 80.5t73 180.5q0 58 -21 98.5t-56.5 70.5t-84 52t-101.5 41 v-523z" />
<glyph unicode="%" horiz-adv-x="1776" d="M102 1120q0 81 21 154t62.5 128.5t101.5 89.5t139 34t139 -34t102 -89.5t62.5 -128.5t20.5 -154q0 -82 -20.5 -154t-62.5 -128t-102.5 -89.5t-138.5 -33.5q-79 0 -139 33.5t-101.5 89.5t-62.5 128t-21 154zM243 1120q0 -56 10 -109t32 -93.5t57 -65t84 -24.5t84.5 24.5 t57.5 65t32.5 92.5t10.5 108q0 55 -10.5 108.5t-32.5 95t-57.5 65.5t-84.5 24t-84 -25t-57 -65.5t-32 -93t-10 -107.5zM391 0l847 1528h146l-847 -1528h-146zM1025 384q0 82 21 154.5t62.5 128t101.5 89t139 33.5t140 -33.5t103 -89t63 -128t21 -154.5q0 -81 -21 -154 t-63 -128.5t-103 -88.5t-140 -33t-139 33t-101.5 88.5t-62.5 128.5t-21 154zM1166 384q0 -55 11 -108t33 -94t56.5 -65t82.5 -24q49 0 84.5 24t57.5 65t33 93t11 107t-11 108.5t-33 95t-57.5 66t-84.5 24.5q-48 0 -82.5 -25.5t-56.5 -66t-33 -92.5t-11 -108z" />
<glyph unicode="&#x26;" horiz-adv-x="1457" d="M150 412q0 84 25.5 149.5t68.5 121t98.5 102t116.5 85.5l-26 35q-67 91 -114.5 168t-47.5 179q0 146 98.5 237.5t277.5 91.5q95 0 164.5 -26.5t115 -72t66.5 -106t21 -126.5q0 -69 -28 -126t-74 -105.5t-108 -91.5t-128 -87l417 -500q46 71 68 159.5t22 185.5v112h171 v-112q0 -141 -39.5 -259.5t-113.5 -213.5l176 -212h-189l-93 111q-179 -132 -428 -131q-135 0 -232 34.5t-161 93t-94 137.5t-30 167zM333 417q0 -130 89.5 -204t250.5 -74q95 0 175 23t140 74l-432 521q-95 -69 -159 -148t-64 -192zM437 1248q0 -72 31 -137t95 -135l22 -27 q53 33 100.5 66.5t84 70t57.5 77t21 89.5q0 84 -49 136t-154 52q-88 0 -148 -47.5t-60 -144.5z" />
<glyph unicode="'" horiz-adv-x="435" d="M139 1592h157l-23 -546h-111z" />
<glyph unicode="(" horiz-adv-x="687" d="M166 655q0 186 37.5 337.5t100 270.5t144.5 205.5t172 144.5l44 -78q-81 -56 -145 -146.5t-106 -205t-65.5 -248.5t-23.5 -280q0 -145 23.5 -279.5t65.5 -249.5t106 -206.5t145 -146.5l-44 -76q-90 58 -172 145t-144.5 204.5t-100 269.5t-37.5 339z" />
<glyph unicode=")" horiz-adv-x="687" d="M23 -227q81 55 143.5 146.5t107 206.5t65.5 249.5t21 279.5q0 146 -21 280t-65.5 248.5t-107 205t-143.5 146.5l44 78q90 -58 172.5 -144.5t144.5 -205.5t99.5 -270.5t37.5 -337.5q0 -187 -37.5 -339t-99.5 -269.5t-144.5 -204.5t-172.5 -145z" />
<glyph unicode="*" horiz-adv-x="1146" d="M139 875l327 203v17l-327 203l106 113l267 -240l18 4l-40 384h168l-38 -384l16 -4l267 240l106 -113l-329 -203v-15l329 -205l-106 -111l-271 245l-12 -9l38 -380h-168l40 382l-16 5l-269 -243z" />
<glyph unicode="+" horiz-adv-x="1309" d="M164 585v142h415v421h154v-421h413v-142h-413v-419h-154v419h-415z" />
<glyph unicode="," horiz-adv-x="545" d="M132 -289l67 514h203l-164 -514h-106z" />
<glyph unicode="-" horiz-adv-x="731" d="M69 560v138h593v-138h-593z" />
<glyph unicode="." horiz-adv-x="545" d="M144 106q0 53 32 90.5t97 37.5q63 0 96 -37.5t33 -90.5t-33 -89.5t-96 -36.5q-64 0 -96.5 36.5t-32.5 89.5z" />
<glyph unicode="/" horiz-adv-x="846" d="M23 -93l660 1652h141l-660 -1652h-141z" />
<glyph unicode="0" horiz-adv-x="1309" d="M113 753q0 366 142.5 569.5t399.5 203.5q128 0 228 -53t169.5 -152t107 -242.5t37.5 -325.5q0 -183 -37.5 -327t-107 -243t-170 -151t-227.5 -52q-256 0 -399 203t-143 570zM289 753q0 -318 94 -474t272 -156q177 0 271 156t94 474q0 317 -94.5 473t-270.5 156 q-178 0 -272 -156t-94 -473z" />
<glyph unicode="1" horiz-adv-x="1309" d="M225 0v157h369v1183l-323 -104v141l356 127h144v-1347h360v-157h-906z" />
<glyph unicode="2" horiz-adv-x="1309" d="M144 0v134l393 398q88 91 158.5 166t120.5 144.5t76.5 138t26.5 143.5q0 120 -82 183t-219 63q-99 0 -194 -25.5t-170 -61.5l-44 145q71 38 178 68t230 30q245 0 361 -108t116 -296q0 -95 -35 -183.5t-95 -175.5t-141.5 -171.5t-173.5 -172.5l-268 -257h762v-162h-1000z " />
<glyph unicode="3" horiz-adv-x="1309" d="M148 71l44 141q69 -32 168 -56t216 -24q186 0 273.5 78.5t87.5 210.5q0 139 -89 208t-247 69h-215v150h215q132 0 213.5 72.5t81.5 206.5q0 113 -82.5 179t-263.5 66q-108 0 -195.5 -21.5t-157.5 -56.5l-44 141q74 40 179 65.5t226 25.5q132 0 227.5 -31t158.5 -85 t93 -127t30 -156q0 -72 -20 -128.5t-52 -98t-76 -71.5t-95 -49q130 -29 208.5 -123t78.5 -238q0 -203 -139 -321t-393 -118q-139 0 -247.5 26.5t-183.5 64.5z" />
<glyph unicode="4" horiz-adv-x="1309" d="M104 292v120l775 1090h144v-1060h178v-150h-178v-292h-171v292h-748zM303 442h554v775z" />
<glyph unicode="5" horiz-adv-x="1309" d="M139 75l46 140q67 -33 166.5 -58t227.5 -25q187 0 286.5 93t99.5 238q0 151 -90.5 236t-298.5 85h-368v126l59 594h782v-162h-634l-38 -400h202q275 0 418.5 -127.5t143.5 -351.5q0 -113 -39.5 -202t-112.5 -152t-176.5 -96t-231.5 -33q-148 0 -258.5 27.5t-183.5 67.5z " />
<glyph unicode="6" horiz-adv-x="1309" d="M141 736q0 189 42 337.5t119.5 247.5t187 152t243.5 53q107 0 187 -22.5t147 -61.5l-42 -132q-128 72 -287 72q-197 0 -306.5 -149.5t-116.5 -429.5q29 31 69 64.5t93 60t118 43.5t143 17q99 0 183 -33.5t142.5 -95.5t91.5 -152.5t33 -207.5q0 -108 -35 -203 t-98.5 -165.5t-156 -110.5t-206.5 -40q-261 0 -406 189t-145 567zM318 662q0 -125 28.5 -224.5t79.5 -169t119.5 -107.5t146.5 -38q145 0 232 100.5t87 280.5q0 69 -15 130.5t-48.5 108t-90 73t-139.5 26.5q-130 0 -233 -54.5t-167 -125.5z" />
<glyph unicode="7" horiz-adv-x="1309" d="M166 1354v150h989v-117l-648 -1387h-183l632 1354h-790z" />
<glyph unicode="8" horiz-adv-x="1309" d="M134 400q0 75 23.5 140t63.5 113.5t93.5 80.5t113.5 43q-101 31 -174 119.5t-73 232.5q0 183 123.5 290t348.5 107t349.5 -107t124.5 -290q0 -71 -19.5 -129t-54.5 -102t-80 -74.5t-96 -46.5q60 -11 113.5 -43t93.5 -80.5t63.5 -113.5t23.5 -140q0 -197 -136.5 -308.5 t-381.5 -111.5t-382 111.5t-137 308.5zM305 405q0 -135 91 -211t257 -76t256.5 76.5t90.5 210.5q0 141 -83.5 217t-263.5 76q-181 0 -264.5 -76t-83.5 -217zM349 1120q0 -137 81.5 -208.5t222.5 -71.5q144 0 223.5 71.5t79.5 208.5q0 132 -79.5 198t-223.5 66 q-141 0 -222.5 -66t-81.5 -198z" />
<glyph unicode="9" horiz-adv-x="1309" d="M120 1005q0 108 35 203t99 165.5t156 111.5t208 41q120 0 222 -47.5t175 -144t113 -237.5t40 -329q0 -388 -152.5 -588t-455.5 -200q-108 0 -195 21.5t-155 56.5l42 132q64 -33 143.5 -50t160.5 -17q225 0 327 150.5t110 428.5q-28 -31 -68.5 -63t-94 -60.5t-118.5 -45.5 t-142 -17q-100 0 -183.5 33.5t-142.5 96.5t-91.5 152.5t-32.5 206.5zM296 1000q0 -69 15.5 -130.5t48.5 -108t89.5 -73t140.5 -26.5q130 0 232.5 54.5t168.5 125.5q0 125 -29.5 224.5t-80 169t-118 108t-145.5 38.5q-146 0 -234 -101t-88 -281z" />
<glyph unicode=":" horiz-adv-x="592" d="M166 104q0 53 33 90.5t97 37.5q62 0 96 -37.5t34 -90.5t-34 -90t-96 -37q-64 0 -97 37t-33 90zM166 976q0 53 33 90.5t97 37.5q62 0 96 -37.5t34 -90.5t-34 -89.5t-96 -36.5q-64 0 -97 36.5t-33 89.5z" />
<glyph unicode=";" horiz-adv-x="592" d="M141 -289l67 514h204l-165 -514h-106zM166 976q0 53 33 90.5t97 37.5q62 0 96 -37.5t34 -90.5t-34 -89.5t-96 -36.5q-64 0 -97 36.5t-33 89.5z" />
<glyph unicode="&#x3c;" horiz-adv-x="1307" d="M148 605v115l974 534v-164l-798 -428l798 -426v-167z" />
<glyph unicode="=" horiz-adv-x="1307" d="M181 377v142h930v-142h-930zM181 803v142h930v-142h-930z" />
<glyph unicode="&#x3e;" horiz-adv-x="1307" d="M185 69v167l798 426l-798 428v164l974 -534v-115z" />
<glyph unicode="?" horiz-adv-x="1128" d="M113 1481q75 38 181 69t229 31q239 0 353.5 -103t114.5 -279q0 -88 -30.5 -157.5t-75.5 -127t-98.5 -107.5t-98.5 -99.5t-75 -100.5t-30 -114q0 -75 22 -122h-146q-31 53 -31 128t29 135t72 111.5t92.5 98t92.5 99.5t72 110.5t29 131.5q0 49 -16.5 91.5t-52 76.5 t-91 53.5t-132.5 19.5q-99 0 -195 -27t-171 -63zM400 104q0 53 34 90.5t96 37.5t96 -37.5t34 -90.5t-34 -90t-96 -37t-96 37t-34 90z" />
<glyph unicode="@" horiz-adv-x="1888" d="M139 757q0 164 55.5 313t162 264t260.5 182t353 67q180 0 325 -57t245.5 -157.5t154.5 -239t54 -303.5q0 -139 -25.5 -237.5t-68 -163.5t-99 -94.5t-116.5 -29.5q-95 0 -148.5 67t-57.5 155q-18 -39 -52 -78.5t-79 -71t-100.5 -50t-114.5 -18.5q-172 0 -268.5 122.5 t-96.5 334.5q0 95 23.5 180t77.5 151t141 105.5t214 39.5q99 0 188.5 -22t163.5 -61v-561q0 -74 26.5 -131.5t93.5 -57.5q30 0 64.5 20.5t63.5 70.5t47.5 133.5t18.5 210.5q0 119 -39.5 235.5t-121.5 208t-209 148t-303 56.5t-312.5 -58t-230 -157.5t-143.5 -232.5t-50 -283 q0 -174 54.5 -302t148 -213t218.5 -128t268 -43q95 0 189 23.5t171 69.5q0 -2 6.5 -14.5t13.5 -28t14.5 -28t7.5 -14.5q-72 -46 -175 -74t-231 -28q-166 0 -308.5 49t-248 146t-165.5 242.5t-60 342.5zM664 766q0 -88 20 -150.5t53.5 -103t78.5 -60t94 -19.5q57 0 108 25.5 t87 70.5t57 109t21 137v296q-37 18 -91.5 29t-115.5 11q-166 0 -239 -91.5t-73 -253.5z" />
<glyph unicode="A" horiz-adv-x="1438" d="M51 0l581 1559h176l581 -1559h-181l-157 428h-665l-154 -428h-181zM446 585h547l-171 464q-26 79 -50 156.5t-50 155.5h-4q-26 -80 -50.5 -157t-49.5 -155z" />
<glyph unicode="B" horiz-adv-x="1420" d="M190 0v1559h572q240 0 365 -113t125 -296q0 -66 -23 -122t-57.5 -99t-78.5 -70.5t-86 -41.5q57 -7 112.5 -34.5t99.5 -74t70.5 -111.5t26.5 -148q0 -98 -33 -181t-101.5 -142t-172.5 -92.5t-245 -33.5h-574zM360 157h402q187 0 285.5 76.5t98.5 215.5q0 154 -105.5 217 t-281.5 63h-399v-572zM360 884h404q132 0 223 68t91 205q0 123 -85.5 184t-230.5 61h-402v-518z" />
<glyph unicode="C" horiz-adv-x="1318" d="M106 780q0 176 48.5 324t142.5 253t230.5 164.5t314.5 59.5q120 0 208.5 -20t164.5 -55l-44 -148q-140 66 -326 66q-266 0 -415.5 -167t-149.5 -477q0 -305 148 -473t414 -168q190 0 343 73l43 -148q-83 -41 -176.5 -62.5t-211.5 -21.5q-190 0 -327.5 57.5t-228 161.5 t-134.5 252t-44 329z" />
<glyph unicode="D" horiz-adv-x="1501" d="M190 0v1559h435q382 0 576.5 -196.5t194.5 -580.5t-194.5 -583t-576.5 -199h-435zM366 162h259q143 0 254.5 35t186.5 110t114 193t39 282t-39 281t-114 191.5t-186.5 109t-254.5 34.5h-259v-1236z" />
<glyph unicode="E" horiz-adv-x="1261" d="M190 0v1559h941v-159h-765v-514h720v-162h-720v-565h780v-159h-956z" />
<glyph unicode="F" horiz-adv-x="1210" d="M190 0v1559h923v-161h-747v-535h701v-161h-701v-702h-176z" />
<glyph unicode="G" horiz-adv-x="1487" d="M106 773q0 192 52 342.5t149.5 253.5t238.5 157.5t320 54.5q125 0 218 -23t173 -58l-45 -149q-66 33 -155.5 51t-186.5 18q-134 0 -242.5 -39t-185 -118.5t-118.5 -202.5t-42 -287q0 -144 34.5 -260.5t98.5 -200t152 -129.5t195 -46q83 0 154.5 25.5t125 75t83.5 124.5 t30 175v169h-322v155h488v-861h-136l-30 201q-51 -95 -150.5 -158t-254.5 -63q-150 0 -270 56.5t-203 160.5t-127 249.5t-44 326.5z" />
<glyph unicode="H" horiz-adv-x="1519" d="M190 0v1559h176v-673h789v673h176v-1559h-176v722h-789v-722h-176z" />
<glyph unicode="I" horiz-adv-x="563" d="M194 0v1559h177v-1559h-177z" />
<glyph unicode="J" horiz-adv-x="879" d="M26 44l45 148q40 -22 97 -36.5t130 -14.5q102 0 161.5 68.5t59.5 234.5v1115h175v-1115q0 -238 -98.5 -350t-294.5 -112q-89 0 -156.5 16t-118.5 46z" />
<glyph unicode="K" horiz-adv-x="1383" d="M190 0v1559h176v-1559h-176zM486 782v86l636 691h209l-671 -728l696 -831h-215z" />
<glyph unicode="L" horiz-adv-x="1179" d="M190 0v1559h176v-1397h745v-162h-921z" />
<glyph unicode="M" horiz-adv-x="1815" d="M190 0v1559h206l377 -835q16 -37 37 -82t39.5 -88.5t33.5 -83t22 -65.5h7q7 26 22 65.5t33 83t38 88.5t39 82l376 835h207v-1559h-174v951q0 58 2.5 155t16.5 204h-5q-31 -93 -60.5 -163.5t-61.5 -139.5l-343 -753h-187l-343 753q-32 69 -62 139.5t-61 163.5h-4 q13 -107 16 -204t3 -155v-951h-174z" />
<glyph unicode="N" horiz-adv-x="1533" d="M190 0v1559h187l657 -1055q46 -75 84.5 -145t64.5 -121h5q-12 80 -16 157t-4 172v992h177v-1559h-188l-658 1055q-46 72 -84 143.5t-64 122.5h-4q11 -79 15 -156t4 -172v-993h-176z" />
<glyph unicode="O" horiz-adv-x="1592" d="M106 780q0 171 41 318t126 254.5t215 168t309 60.5q178 0 307.5 -60.5t215 -168t126 -254.5t40.5 -318q0 -172 -40.5 -318.5t-126 -254.5t-215 -167.5t-307.5 -59.5q-179 0 -309 59.5t-215 167.5t-126 255t-41 318zM280 780q0 -153 31 -273.5t96 -206t162.5 -130.5 t227.5 -45t225.5 45t160.5 130.5t96 206t31 273.5q0 152 -31 272.5t-96 206.5t-161.5 131t-224.5 45q-130 0 -227.5 -45t-162.5 -131t-96 -206.5t-31 -272.5z" />
<glyph unicode="P" horiz-adv-x="1294" d="M190 0v1559h502q119 0 216 -36.5t162 -101.5t99 -153t34 -190q0 -106 -37 -195.5t-105 -155t-165 -102.5t-218 -37h-312v-588h-176zM366 750h312q164 0 256.5 87.5t92.5 240.5q0 148 -85 234t-250 86h-326v-648z" />
<glyph unicode="Q" horiz-adv-x="1588" d="M104 780q0 171 40.5 318t126 254.5t215.5 168t307 60.5q179 0 309 -60.5t215 -168t126 -254.5t41 -318q0 -157 -34 -294t-104.5 -241t-177 -171t-252.5 -85q-18 -60 -57.5 -114t-94.5 -78h470v-153h-783v153h37q106 0 172.5 54t89.5 131q-166 7 -288 69t-201.5 169 t-118 250.5t-38.5 309.5zM280 780q0 -305 126 -480t387 -175q259 0 386.5 175t127.5 480q0 152 -31 272.5t-94.5 205t-161 130t-227.5 45.5q-261 0 -387 -175t-126 -478z" />
<glyph unicode="R" horiz-adv-x="1358" d="M190 0v1559h552q120 0 216.5 -35.5t161.5 -98t99.5 -147t34.5 -181.5q0 -169 -98 -291.5t-268 -164.5l378 -641h-192l-365 623h-3h-342v-623h-174zM364 784h365q164 0 256.5 83.5t92.5 229.5q0 139 -85.5 219t-250.5 80h-378v-612z" />
<glyph unicode="S" horiz-adv-x="1221" d="M128 69l46 143q67 -32 162 -55t217 -23q83 0 153.5 16t121.5 50t80 87t29 128q0 74 -30 122t-82 83t-119.5 59.5t-140.5 47.5q-75 22 -151 55t-141 82.5t-105 123.5t-40 183q0 88 28.5 163t91 129.5t159.5 86t234 31.5q115 0 210.5 -22t171.5 -62l-47 -143 q-66 33 -154.5 52.5t-180.5 19.5q-183 0 -264 -70.5t-81 -182.5q0 -67 27.5 -113t75 -79.5t111.5 -59t135 -49.5q84 -28 166.5 -61.5t148 -85.5t106 -127t40.5 -186q0 -110 -39.5 -191.5t-110 -134.5t-169 -79.5t-213.5 -26.5q-166 0 -269.5 25.5t-176.5 63.5z" />
<glyph unicode="T" horiz-adv-x="1184" d="M28 1396v163h1129v-163l-477 2v-1398h-176v1398z" />
<glyph unicode="U" horiz-adv-x="1535" d="M185 623v936h175v-939q0 -245 106 -362t302 -117q197 0 302 117t105 362v939h176v-936q0 -166 -40.5 -287t-116.5 -201t-183.5 -117.5t-242.5 -37.5q-134 0 -241.5 37.5t-183.5 117.5t-117 200t-41 288z" />
<glyph unicode="V" horiz-adv-x="1415" d="M44 1559h181l358 -985q33 -97 61.5 -193t59.5 -193h5q32 97 61 192t58 192l362 987h180l-573 -1559h-179z" />
<glyph unicode="W" horiz-adv-x="2033" d="M71 1559h176l206 -881q31 -128 50.5 -250.5t30.5 -233.5h5q18 113 45 228t66 245l273 892h183l274 -892q39 -128 67 -244t46 -229h4q9 111 30 233.5t52 250.5l203 881h179l-369 -1559h-176l-310 1014q-26 81 -51.5 181.5t-38.5 174.5h-5q-13 -77 -37.5 -176t-50.5 -180 l-309 -1014h-174z" />
<glyph unicode="X" horiz-adv-x="1415" d="M67 0l540 810l-499 749h197l404 -624l400 624h196l-497 -749l541 -810h-196l-444 685h-3l-445 -685h-194z" />
<glyph unicode="Y" horiz-adv-x="1302" d="M37 1559h186l424 -749h6l423 749h187l-525 -899v-660h-175v660z" />
<glyph unicode="Z" horiz-adv-x="1265" d="M102 0v123l826 1277h-769v159h987v-124l-824 -1276h837v-159h-1057z" />
<glyph unicode="[" horiz-adv-x="642" d="M190 -273v1856h402v-132h-250v-1592h250v-132h-402z" />
<glyph unicode="\" horiz-adv-x="846" d="M23 1559h141l660 -1652h-141z" />
<glyph unicode="]" horiz-adv-x="642" d="M51 -141h250v1592h-250v132h402v-1856h-402v132z" />
<glyph unicode="^" horiz-adv-x="1202" d="M97 638l428 921h153l428 -921h-178l-327 746l-328 -746h-176z" />
<glyph unicode="_" horiz-adv-x="987" d="M0 -159h988v-137h-988v137z" />
<glyph unicode="`" horiz-adv-x="682" d="M-20 1490l95 130l334 -287l-53 -74z" />
<glyph unicode="a" horiz-adv-x="1163" d="M97 312q0 187 129.5 281t361.5 94h240v49q0 141 -71.5 202.5t-193.5 61.5q-104 0 -191 -24.5t-160 -59.5l-38 124q62 37 165 68t228 31q218 0 322 -109t104 -297v-733h-130l-35 197q-26 -44 -59 -83t-78.5 -69.5t-105.5 -47.5t-143 -17q-71 0 -134 21.5t-110.5 63 t-74 104.5t-26.5 143zM263 312q0 -97 59.5 -148t147.5 -51q81 0 147 30.5t113 80t72.5 111t25.5 124.5v99h-243q-159 0 -240.5 -63.5t-81.5 -182.5z" />
<glyph unicode="b" horiz-adv-x="1288" d="M181 0v1559h170v-622q23 33 61.5 69t88 64.5t111 48.5t133.5 20q108 0 190.5 -45t137 -122.5t82.5 -181t28 -216.5q0 -148 -34 -259.5t-95 -186.5t-146.5 -111.5t-187.5 -36.5q-128 0 -225 63t-144 154l-33 -197h-137zM351 532q0 -86 27 -158.5t73 -127t109 -84.5 t134 -30q62 0 120 23.5t102 75t71 136t27 207.5q0 208 -83 308.5t-216 100.5q-113 0 -205.5 -56.5t-158.5 -144.5v-250z" />
<glyph unicode="c" horiz-adv-x="1056" d="M102 560q0 124 32 230t99.5 183.5t169 121.5t238.5 44q95 0 174 -20t145 -52l-39 -130q-60 28 -129.5 45.5t-150.5 17.5q-95 0 -165.5 -32.5t-115.5 -91.5t-67 -140t-22 -176q0 -94 22 -175.5t68 -140.5t117.5 -92.5t171.5 -33.5q71 0 144.5 17.5t137.5 49.5l40 -127 q-71 -38 -151.5 -58t-184.5 -20q-137 0 -236 43.5t-166.5 122.5t-99.5 185t-32 229z" />
<glyph unicode="d" horiz-adv-x="1285" d="M106 558q0 126 33 231t95 183.5t151.5 122.5t199.5 44q65 0 121 -17.5t100 -46.5t76 -64t53 -69v617h171v-1559h-136l-35 197q-47 -91 -143 -154t-220 -63q-102 0 -188 36.5t-147 109.5t-96 181t-35 251zM273 560q0 -117 27 -198.5t72 -132t102.5 -74t119.5 -23.5 q72 0 133.5 30t107.5 84.5t73 127t27 158.5v254q-60 93 -143 145t-178 52q-146 0 -243.5 -104t-97.5 -319z" />
<glyph unicode="e" horiz-adv-x="1159" d="M106 560q0 124 30 230t91.5 183.5t157.5 121.5t229 44q218 0 328.5 -124.5t110.5 -338.5q0 -56 -6.5 -104.5t-19.5 -90.5h-756q14 -174 110 -268.5t277 -94.5q76 0 154 16t142 49l42 -128q-72 -37 -159 -56t-194 -19q-137 0 -237.5 41t-166 116t-99.5 183t-34 240z M271 609h619q3 5 3.5 32.5t0.5 34.5q0 159 -65 245t-215 86q-89 0 -151.5 -30t-103.5 -83.5t-62 -126.5t-26 -158z" />
<glyph unicode="f" horiz-adv-x="772" d="M42 979v139h178v62q0 183 78.5 292t271.5 109q68 0 121.5 -16.5t99.5 -41.5l-38 -125q-82 44 -172 44q-60 0 -98.5 -17.5t-59.5 -52t-29 -83t-8 -112.5v-59h329v-139h-329v-979h-166v979h-178z" />
<glyph unicode="g" horiz-adv-x="1281" d="M106 567q0 120 33 224.5t95 182t151.5 121.5t199.5 44q65 0 121 -20t99 -48.5t76 -64.5t54 -69l30 181h141v-1034q0 -146 -37 -249.5t-104 -169t-160.5 -97t-207.5 -31.5q-120 0 -229 31.5t-174 71.5l42 137q67 -39 155 -63t188 -24q79 0 144.5 17t111.5 62.5t73 121.5 t27 195v126q-47 -90 -143 -153.5t-220 -63.5q-102 0 -188 37t-147 108.5t-96 179.5t-35 247zM273 567q0 -113 27 -193t72 -130t102.5 -73t119.5 -23q77 0 140 30t107.5 85t69 127.5t24.5 157.5v229q-54 89 -140 147.5t-181 58.5q-146 0 -243.5 -103t-97.5 -313z" />
<glyph unicode="h" horiz-adv-x="1299" d="M181 0v1559h170v-614q23 32 62.5 66.5t91 62.5t113.5 46.5t132 18.5q179 0 279 -116t100 -321v-702h-166v702q0 132 -65 207.5t-176 75.5q-117 0 -213.5 -56.5t-157.5 -139.5v-789h-170z" />
<glyph unicode="i" horiz-adv-x="541" d="M153 1464q0 49 29.5 84t88.5 35q60 0 89 -35t29 -84q0 -48 -29 -81.5t-89 -33.5q-57 0 -87.5 33.5t-30.5 81.5zM185 0v1118h171v-1118h-171z" />
<glyph unicode="j" horiz-adv-x="543" d="M-120 -428l43 134q58 -26 119 -26q88 0 115.5 52.5t27.5 174.5v1211h171v-1213q0 -90 -13.5 -161t-48.5 -117t-95 -70.5t-153 -24.5q-51 0 -92.5 12t-73.5 28zM153 1464q0 49 29.5 84t88.5 35q60 0 90 -35t30 -84q0 -48 -30 -81.5t-90 -33.5q-57 0 -87.5 33.5t-30.5 81.5 z" />
<glyph unicode="k" horiz-adv-x="1159" d="M181 0v1559h170v-1559h-170zM446 592v66l444 460h207l-477 -491l502 -627h-201l-236 296q-44 55 -86.5 109t-76.5 95t-55 67z" />
<glyph unicode="l" horiz-adv-x="541" d="M185 0v1559h171v-1559h-171z" />
<glyph unicode="m" horiz-adv-x="1844" d="M176 0v1118h142l29 -181q20 35 54 70t78 65t99.5 48.5t123.5 18.5q115 0 185.5 -60.5t97.5 -164.5q56 91 153.5 158t217.5 67q164 0 241 -111.5t77 -291.5v-736h-170v736q0 113 -40 182.5t-143 69.5q-51 0 -96 -18.5t-84 -49t-73 -70.5t-57 -84v-766h-169v736 q0 113 -41.5 182.5t-138.5 69.5q-104 0 -186.5 -61t-128.5 -145v-782h-171z" />
<glyph unicode="n" horiz-adv-x="1294" d="M176 0v1118h139l32 -181q26 33 64 69t88.5 64.5t112 48.5t133.5 20q178 0 278.5 -116t100.5 -321v-702h-168v702q0 132 -64 207.5t-174 75.5q-118 0 -214.5 -58.5t-156.5 -144.5v-782h-171z" />
<glyph unicode="o" horiz-adv-x="1244" d="M102 560q0 124 31 229t95 183.5t162 122.5t233 44q134 0 231 -44t161.5 -122.5t96.5 -184t32 -228.5t-32 -229t-96.5 -185t-161.5 -122.5t-231 -43.5q-135 0 -233 43.5t-162 122.5t-95 185t-31 229zM271 560q0 -94 20.5 -176.5t63.5 -141.5t109 -93t159 -34 q92 0 158.5 34t108.5 93t63 141.5t21 176.5q0 95 -21 175t-63 138.5t-108.5 92.5t-158.5 34q-93 0 -159 -34t-109 -92.5t-63.5 -138.5t-20.5 -175z" />
<glyph unicode="p" horiz-adv-x="1283" d="M176 -442v1560h142l29 -181q23 33 61 69t88 64.5t112.5 48.5t131.5 20q109 0 191.5 -45t136.5 -122.5t81.5 -181t27.5 -216.5q0 -148 -33 -259.5t-94.5 -186.5t-147 -111.5t-187.5 -36.5q-127 0 -224.5 63t-143.5 154v-639h-171zM347 532q0 -86 26.5 -158.5t73 -127 t109 -84.5t133.5 -30q62 0 120.5 23.5t102.5 75t70.5 136t26.5 207.5q0 208 -83.5 308.5t-214.5 100.5q-106 0 -202.5 -56.5t-161.5 -144.5v-250z" />
<glyph unicode="q" horiz-adv-x="1292" d="M108 558q0 126 33 231t95 183.5t151.5 122.5t200.5 44q64 0 120 -18.5t100 -48.5t76 -65t53 -70l30 181h142v-1560h-172v639q-47 -91 -143 -154t-220 -63q-102 0 -187.5 36.5t-146.5 109.5t-96.5 181t-35.5 251zM276 560q0 -117 26.5 -198.5t71.5 -132t102.5 -74 t120.5 -23.5q71 0 132.5 30t108 84.5t73 127t26.5 158.5v245q-58 95 -138.5 150.5t-182.5 55.5q-146 0 -243 -104t-97 -319z" />
<glyph unicode="r" horiz-adv-x="853" d="M176 0v1118h136l35 -199q23 39 54.5 78.5t71 70.5t87 51t107.5 20q69 0 106 -16.5t44 -20.5l-49 -170q-48 42 -130 42q-94 0 -169.5 -53t-121.5 -150v-771h-171z" />
<glyph unicode="s" horiz-adv-x="1001" d="M111 51l39 128q60 -29 141.5 -47.5t167.5 -18.5q141 0 201 52.5t60 126.5q0 92 -78.5 139.5t-192.5 80.5q-75 20 -136 48t-106 67.5t-69.5 92.5t-24.5 128q0 141 108 216t289 75q97 0 184.5 -18.5t155.5 -51.5l-40 -132q-62 30 -133.5 47.5t-153.5 17.5 q-125 0 -185 -41.5t-60 -110.5q0 -82 62 -123.5t167 -73.5q188 -57 283.5 -137.5t95.5 -226.5q0 -141 -101.5 -225t-318.5 -84q-107 0 -199.5 18t-155.5 53z" />
<glyph unicode="t" horiz-adv-x="806" d="M42 979v139h178l43 319h123v-319h345v-139h-345v-674q0 -93 28 -140t116 -47q53 0 98 14t81 32l39 -122q-46 -31 -102 -46.5t-142 -15.5q-146 0 -215 76t-69 247v676h-178z" />
<glyph unicode="u" horiz-adv-x="1279" d="M172 417v701h166v-701q0 -137 60.5 -212t164.5 -75q62 0 117.5 18t101.5 49.5t84.5 73t65.5 85.5v762h172v-1118h-137l-35 197q-20 -35 -56 -74t-86 -71t-113 -52t-143 -20q-159 0 -260.5 104t-101.5 333z" />
<glyph unicode="v" horiz-adv-x="1068" d="M42 1118h176l203 -570q29 -95 57.5 -186t53.5 -186h5q26 95 54.5 186t55.5 186l205 570h175l-407 -1118h-171z" />
<glyph unicode="w" horiz-adv-x="1566" d="M60 1118h167l153 -667q16 -67 25.5 -138.5t13.5 -153.5h5q11 79 27.5 151t34.5 134l210 674h174l210 -674q18 -62 34.5 -134t29.5 -151h4q5 82 14 153.5t26 138.5l152 667h166l-270 -1118h-165l-229 729q-18 60 -30.5 118t-25.5 123h-6q-12 -65 -25 -123t-31 -118 l-229 -729h-164z" />
<glyph unicode="x" horiz-adv-x="1115" d="M55 0l411 583l-376 535h181q106 -158 164 -245t84.5 -125.5t31.5 -46.5l5 -7l286 424h183l-378 -535l413 -583h-181l-323 468l-320 -468h-181z" />
<glyph unicode="y" horiz-adv-x="1272" d="M172 437v681h166v-681q0 -136 58.5 -211.5t166.5 -75.5q62 0 116 20t99.5 51t82.5 71.5t64 84.5v741h172v-1034q0 -278 -131 -414t-369 -136q-111 0 -215 32t-167 74l44 135q64 -39 147.5 -63t181.5 -24q81 0 143 19.5t106 65.5t66 122.5t22 190.5v134q-20 -37 -55 -75.5 t-83.5 -70.5t-109.5 -53t-136 -21q-171 0 -270 104t-99 333z" />
<glyph unicode="z" horiz-adv-x="1038" d="M97 0v99l612 880h-565v139h772v-100l-611 -879h632v-139h-840z" />
<glyph unicode="{" horiz-adv-x="716" d="M120 594v119q108 0 145.5 48.5t37.5 136.5q0 42 -5.5 90.5t-11.5 98.5t-11.5 98.5t-5.5 91.5q0 155 85.5 230.5t244.5 75.5h48v-108h-46q-102 0 -141 -57t-39 -164q0 -86 17 -174.5t17 -176.5q0 -97 -37.5 -160t-132.5 -88q95 -28 132.5 -90.5t37.5 -159.5 q0 -89 -17 -177.5t-17 -174.5q0 -104 39 -160.5t141 -56.5h46v-109h-48q-159 0 -244.5 75t-85.5 229q0 44 5.5 92.5t11.5 98t11.5 98t5.5 89.5q0 88 -37 136.5t-146 48.5z" />
<glyph unicode="|" horiz-adv-x="570" d="M208 -463v2254h156v-2254h-156z" />
<glyph unicode="}" horiz-adv-x="716" d="M69 -164h44q102 0 142.5 56.5t40.5 160.5q0 86 -17.5 175.5t-17.5 176.5q0 97 38.5 159.5t131.5 90.5q-93 26 -131.5 88.5t-38.5 159.5q0 88 17.5 176.5t17.5 174.5q0 107 -40.5 164t-142.5 57h-44v108h46q160 0 245.5 -75t85.5 -231q0 -44 -5.5 -92t-11 -98t-11.5 -99 t-6 -90q0 -88 38 -136.5t147 -48.5v-119q-109 0 -147 -48.5t-38 -136.5q0 -42 6 -90t11.5 -97.5t11 -98t5.5 -92.5q0 -153 -85 -228.5t-246 -75.5h-46v109z" />
<glyph unicode="~" horiz-adv-x="1258" d="M97 698q18 38 48.5 77.5t69.5 70.5t87.5 50.5t104.5 19.5q81 0 137.5 -26.5t104 -59.5t94 -60.5t107.5 -27.5q81 0 134.5 47t93.5 107q20 -20 40.5 -42.5t43.5 -43.5q-47 -88 -126.5 -154t-181.5 -66q-83 0 -141 27.5t-106.5 60.5t-93.5 60.5t-101 27.5q-90 0 -142 -46.5 t-89 -105.5q-23 20 -43 41t-41 43z" />
<glyph horiz-adv-x="1157" />
<glyph unicode="&#xa0;" />
<glyph unicode="&#xa1;" horiz-adv-x="572" d="M157 1011q0 53 34 90.5t96 37.5t96 -37.5t34 -90.5t-34 -90t-96 -37t-96 37t-34 90zM199 -88l26 771h126l26 -771v-354h-178v354z" />
<glyph unicode="&#xa2;" horiz-adv-x="1309" d="M220 560q0 116 30 216.5t91 176.5t151.5 123.5t213.5 60.5v212h116v-210q157 -7 277 -68l-39 -129q-51 26 -111.5 40t-126.5 18v-882q62 4 128 20.5t121 42.5l40 -128q-128 -64 -289 -71v-214h-116v216q-120 9 -212 56.5t-152 124t-91 178t-31 217.5zM389 560 q0 -171 77.5 -291.5t239.5 -145.5v873q-159 -21 -238 -141.5t-79 -294.5z" />
<glyph unicode="&#xa3;" horiz-adv-x="1309" d="M162 0v172h81q58 20 103 57.5t76 79.5t48.5 89.5t17.5 94.5q0 55 -16.5 104.5t-36.5 98.5h-259v128h190q-35 66 -62.5 137t-27.5 157q0 92 37.5 167.5t102.5 128.5t152 82.5t185 29.5q119 0 196.5 -23.5t152.5 -62.5l-44 -142q-65 38 -130 55t-157 17q-84 0 -140.5 -25.5 t-92.5 -66t-51 -89t-15 -96.5q0 -77 26.5 -142t59.5 -127h370v-128h-305q18 -44 31 -88.5t13 -97.5q0 -111 -58.5 -198t-159.5 -140h752v-172h-1039z" />
<glyph unicode="&#xa4;" horiz-adv-x="1320" d="M192 1144q20 20 42.5 41t43.5 43l131 -131q58 47 120.5 66.5t130.5 19.5q69 0 130.5 -22t121.5 -64l130 129q20 -20 41 -43.5t41 -41.5l-124 -127q42 -60 62.5 -121.5t20.5 -133.5q0 -66 -21.5 -131t-61.5 -118l127 -130q-21 -23 -43 -45.5t-42 -47.5l-128 134 q-62 -39 -122.5 -60t-129.5 -21q-74 0 -134 21t-119 60l-129 -134q-20 23 -42.5 47t-43.5 46l128 130q-42 55 -63 115t-21 134q0 69 22 130.5t62 124.5l-93 90q-6 9 -17 18t-20 22zM358 759q0 -62 23.5 -116.5t65 -95t96 -63.5t117.5 -23q60 0 115.5 23t97 63.5t67 95 t25.5 116.5q0 63 -25.5 118t-67 96t-97 64t-115.5 23q-62 0 -117 -23t-96.5 -64t-65 -96t-23.5 -118z" />
<glyph unicode="&#xa5;" horiz-adv-x="1309" d="M104 1504h185l361 -694h5l363 694h188l-387 -701h285v-107h-340q-5 -9 -12 -17t-12 -19v-144h364v-104h-364v-412h-175v412h-362v104h362v144l-21 36h-341v107h285z" />
<glyph unicode="&#xa6;" horiz-adv-x="568" d="M210 -405v812h148v-812h-148zM210 748v811h148v-811h-148z" />
<glyph unicode="&#xa7;" horiz-adv-x="1309" d="M199 780q0 88 41.5 145.5t108.5 83.5q-53 51 -76 111t-23 128q0 148 118 240.5t324 92.5q90 0 177 -21t156 -54l-40 -129q-60 33 -127 52.5t-147 19.5q-153 0 -223.5 -58t-70.5 -143q0 -47 23 -82t61 -60.5t86.5 -44.5t101.5 -38q67 -23 142.5 -50.5t139 -69.5 t105.5 -101.5t42 -141.5q0 -86 -43 -142.5t-112 -82.5q60 -53 85.5 -120.5t25.5 -131.5q0 -77 -36 -137t-101 -101.5t-154 -63.5t-195 -22q-113 0 -210.5 22t-167.5 57l40 126q66 -32 145.5 -52.5t178.5 -20.5q67 0 127.5 12.5t106.5 38t74 60.5t28 81q0 51 -24.5 86.5 t-64 63t-90.5 47.5t-102 37q-57 16 -131 41.5t-140 67t-112.5 104t-46.5 150.5zM373 797q0 -56 31 -94.5t77.5 -65t99.5 -44t99 -30.5q69 -21 104 -32.5t73 -31.5q22 14 44 35q15 19 29.5 43t14.5 61q0 89 -87 145.5t-226 95.5q-65 18 -104.5 32t-76.5 36q-23 -14 -39 -37 q-15 -18 -27 -47.5t-12 -65.5z" />
<glyph unicode="&#xa8;" horiz-adv-x="682" d="M9 1420q0 44 27.5 76t81.5 32q53 0 82 -32t29 -76t-28.5 -75t-82.5 -31t-81.5 31t-27.5 75zM453 1420q0 44 29.5 76t82.5 32t80.5 -32t27.5 -76t-27.5 -75t-80.5 -31t-82.5 31t-29.5 75z" />
<glyph unicode="&#xa9;" horiz-adv-x="1592" d="M93 780q0 150 56.5 282t152.5 230.5t223.5 155t271.5 56.5q143 0 270 -56.5t223.5 -155t153 -230.5t56.5 -282q0 -151 -56.5 -282.5t-153 -229.5t-224 -155.5t-269.5 -57.5q-144 0 -271.5 57.5t-223.5 155.5t-152.5 229.5t-56.5 282.5zM199 780q0 -130 45 -244.5 t125 -200t190 -135.5t238 -50q127 0 237 50t189.5 135.5t124.5 200t45 244.5t-45 244.5t-124.5 200t-190 135t-236.5 49.5q-128 0 -238 -49.5t-190 -135t-125 -200t-45 -244.5zM442 777q0 86 23 161.5t70.5 130.5t120.5 88t172 33q128 0 227 -51l-30 -93q-93 44 -197 44 q-136 0 -198.5 -89t-62.5 -224q0 -134 62.5 -222.5t203.5 -88.5q102 0 199 46l28 -93q-53 -26 -108.5 -39.5t-129.5 -13.5q-98 0 -169.5 32.5t-119 87.5t-69.5 130.5t-22 160.5z" />
<glyph unicode="&#xaa;" horiz-adv-x="797" d="M35 925q0 142 97 209t264 67h162v25q0 93 -51.5 137t-131.5 44q-67 0 -130.5 -16t-119.5 -46l-37 108q49 26 125 50.5t171 24.5q160 0 237 -82.5t77 -221.5v-530h-115l-20 116q-40 -53 -99 -92.5t-170 -39.5q-109 0 -184 62.5t-75 184.5zM183 925q0 -59 37 -95.5 t98 -36.5q53 0 98 21t76 55t48.5 76.5t17.5 86.5v63h-162q-104 0 -158.5 -44t-54.5 -126z" />
<glyph unicode="&#xab;" horiz-adv-x="1042" d="M93 560l300 414h141l-298 -414l298 -416h-141zM497 560l302 414h140l-298 -414l298 -416h-140z" />
<glyph unicode="&#xac;" horiz-adv-x="1146" d="M93 702v146h939v-561h-155v415h-784z" />
<glyph unicode="&#xad;" horiz-adv-x="682" d="M23 507v138h637v-138h-637z" />
<glyph unicode="&#xae;" horiz-adv-x="1223" d="M93 1064q0 109 38.5 204t106 164.5t162.5 110t211 40.5t212 -40.5t164 -110t106 -164.5t38 -204q0 -108 -38 -203t-106 -165.5t-164 -111t-212 -40.5q-115 0 -210.5 40.5t-163 111t-106 165.5t-38.5 203zM183 1064q0 -90 31 -171t87.5 -141t135.5 -94.5t174 -34.5 q98 0 176.5 34.5t135 94.5t88 141t31.5 171q0 91 -31.5 170.5t-88 141t-135 96t-176.5 34.5q-95 0 -174 -34.5t-135.5 -96t-87.5 -141t-31 -170.5zM431 768v577h214q111 0 158 -49.5t47 -120.5q0 -62 -37.5 -108.5t-99.5 -64.5l139 -234h-95l-134 225h-104v-225h-88z M519 1074h122q121 0 121 101q0 44 -28 67.5t-91 23.5h-124v-192z" />
<glyph unicode="&#xaf;" horiz-adv-x="682" d="M26 1329v120h632v-120h-632z" />
<glyph unicode="&#xb0;" horiz-adv-x="811" d="M93 1280q0 62 24 117.5t66 96.5t98.5 65t123.5 24q66 0 124.5 -24t100 -65t66 -96.5t24.5 -117.5t-24.5 -118t-66 -97.5t-99.5 -66t-125 -24.5t-123.5 24.5t-98.5 66t-66 97.5t-24 118zM190 1280q0 -44 16.5 -83.5t45 -69.5t67.5 -47.5t86 -17.5q48 0 88.5 17.5 t69.5 47.5t46.5 69.5t17.5 83.5q0 88 -62.5 149t-159.5 61q-93 0 -154 -61t-61 -149z" />
<glyph unicode="&#xb1;" horiz-adv-x="1309" d="M164 0v115h982v-115h-982zM164 607v138h415v403h154v-403h413v-138h-413v-404h-154v404h-415z" />
<glyph unicode="&#xb2;" horiz-adv-x="709" d="M62 694v92l211 216q84 84 138.5 155t54.5 146q0 53 -36.5 79.5t-100.5 26.5q-44 0 -98.5 -16t-100.5 -39l-37 108q46 23 110 43.5t130 20.5q139 0 206.5 -59.5t67.5 -163.5q0 -53 -24.5 -104t-61.5 -98.5t-81 -91.5t-82 -81l-111 -111h382v-123h-567z" />
<glyph unicode="&#xb3;" horiz-adv-x="693" d="M62 742l35 108q44 -23 98.5 -38t109.5 -15q86 0 126.5 40t40.5 98q0 62 -41.5 95.5t-110.5 33.5h-126v111h126q55 0 92 31.5t37 98.5q0 46 -34.5 76t-122.5 30q-54 0 -101 -12t-92 -36l-37 109q49 26 110.5 40t123.5 14q155 0 223.5 -65t68.5 -156q0 -69 -36 -113 t-89 -65q75 -16 111.5 -70.5t36.5 -121.5q0 -116 -78 -184t-226 -68q-79 0 -139 17.5t-106 41.5z" />
<glyph unicode="&#xb4;" horiz-adv-x="682" d="M273 1333l336 287l95 -130l-377 -231z" />
<glyph unicode="&#xb5;" horiz-adv-x="1285" d="M176 -463v1581h169v-709q0 -139 61.5 -210t172.5 -71q59 0 112.5 19t98.5 50.5t82.5 72t64.5 84.5v764h174v-1118h-139l-35 197q-21 -38 -56.5 -75.5t-80.5 -69.5t-102 -52t-119 -20q-89 0 -145.5 24t-88.5 71v-538h-169z" />
<glyph unicode="&#xb6;" horiz-adv-x="1022" d="M97 1157q0 95 32.5 170t88 127t131 78.5t161.5 26.5h444v-110h-84q-95 0 -127 -38.5t-32 -118.5v-1403h-158v873h-67q-75 0 -144 25t-123.5 75t-88 124t-33.5 171z" />
<glyph unicode="&#xb7;" horiz-adv-x="545" d="M144 645q0 53 32 90.5t97 37.5q63 0 96 -37.5t33 -90.5t-33 -89.5t-96 -36.5q-64 0 -96.5 36.5t-32.5 89.5z" />
<glyph unicode="&#xb8;" horiz-adv-x="682" d="M125 -380l185 290h109l-109 -290h-185z" />
<glyph unicode="&#xb9;" horiz-adv-x="658" d="M81 694v121h192v572l-167 -54v113l201 69h105v-700h185v-121h-516z" />
<glyph unicode="&#xba;" horiz-adv-x="910" d="M69 1104q0 88 23 165.5t70.5 134t120.5 89.5t172 33q100 0 173.5 -33t121 -89.5t70 -134t22.5 -165.5q0 -90 -22.5 -166.5t-70 -134.5t-120.5 -90.5t-174 -32.5q-99 0 -172 32.5t-120.5 90.5t-70.5 134.5t-23 166.5zM218 1104q0 -64 13.5 -120t42.5 -97.5t74 -64.5 t107 -23q63 0 108.5 23t75.5 64.5t43.5 97.5t13.5 120q0 132 -57.5 216.5t-183.5 84.5q-125 0 -181 -84.5t-56 -216.5z" />
<glyph unicode="&#xbb;" horiz-adv-x="1042" d="M104 144l298 416l-298 414h141l301 -414l-301 -416h-141zM510 144l298 416l-298 414h140l301 -414l-301 -416h-140z" />
<glyph unicode="&#xbc;" horiz-adv-x="1758" d="M123 694v121h192v572l-167 -54v113l199 69h106v-700h185v-121h-515zM384 0l848 1528h145l-847 -1528h-146zM960 155v99l405 568h114v-544h93v-123h-93v-155h-132v155h-387zM1109 278h240v327z" />
<glyph unicode="&#xbd;" horiz-adv-x="1758" d="M123 694v121h192v572l-167 -54v113l199 69h106v-700h185v-121h-515zM384 0l848 1528h145l-847 -1528h-146zM1078 0v93l211 214q84 84 138 155.5t54 146.5q0 53 -36 79.5t-100 26.5q-44 0 -98.5 -16t-100.5 -39l-37 108q46 23 110 43t130 20q139 0 206.5 -59t67.5 -163 q0 -53 -24.5 -104.5t-61.5 -99t-81.5 -91t-80.5 -80.5l-112 -111h382v-123h-567z" />
<glyph unicode="&#xbe;" horiz-adv-x="1758" d="M99 742l38 108q42 -23 97 -38t108 -15q89 0 129.5 40t40.5 98q0 62 -42 95.5t-114 33.5h-122v111h122q58 0 95 31.5t37 98.5q0 46 -34.5 76t-122.5 30q-53 0 -100.5 -12t-91.5 -36l-37 109q48 26 108.5 40t125.5 14q154 0 221.5 -65t67.5 -156q0 -69 -34.5 -113 t-91.5 -65q77 -16 112.5 -70.5t35.5 -121.5q0 -116 -77 -184t-223 -68q-79 0 -140 17.5t-108 41.5zM384 0l848 1528h145l-847 -1528h-146zM960 155v99l405 568h114v-544h93v-123h-93v-155h-132v155h-387zM1109 278h240v327z" />
<glyph unicode="&#xbf;" horiz-adv-x="1128" d="M139 -81q0 88 30 157.5t76.5 127t98.5 107t98 99t76 101.5t30 114q0 69 -20 123h143q16 -26 24.5 -60.5t8.5 -69.5q0 -74 -29.5 -134t-72 -111t-93 -98.5t-93.5 -99.5t-72 -110t-29 -132q0 -48 16 -91t52 -77t91.5 -53t134.5 -19q97 0 194.5 26.5t168.5 62.5l44 -146 q-71 -37 -178 -69.5t-231 -32.5q-236 0 -352 104.5t-116 280.5zM470 1011q0 53 33.5 90.5t95.5 37.5t96 -37.5t34 -90.5t-33.5 -90t-96.5 -37q-62 0 -95.5 37t-33.5 90z" />
<glyph unicode="&#xc0;" horiz-adv-x="1438" d="M51 0l581 1559h176l581 -1559h-181l-157 428h-665l-154 -428h-181zM446 585h547l-171 464q-26 79 -50 156.5t-50 155.5h-4q-26 -80 -50.5 -157t-49.5 -155zM505 1943l95 130l334 -287l-53 -74z" />
<glyph unicode="&#xc1;" horiz-adv-x="1438" d="M51 0l581 1559h176l581 -1559h-181l-157 428h-665l-154 -428h-181zM446 585h547l-171 464q-26 79 -50 156.5t-50 155.5h-4q-26 -80 -50.5 -157t-49.5 -155zM505 1786l336 287l95 -130l-377 -231z" />
<glyph unicode="&#xc2;" horiz-adv-x="1438" d="M51 0l581 1559h176l581 -1559h-181l-157 428h-665l-154 -428h-181zM391 1716l268 325h118l269 -325h-162l-167 206l-164 -206h-162zM446 585h547l-171 464q-26 79 -50 156.5t-50 155.5h-4q-26 -80 -50.5 -157t-49.5 -155z" />
<glyph unicode="&#xc3;" horiz-adv-x="1438" d="M51 0l581 1559h176l581 -1559h-181l-157 428h-665l-154 -428h-181zM372 1749q3 109 52.5 169.5t146.5 60.5q49 0 87.5 -18t70.5 -37.5t64.5 -37t67.5 -17.5q46 0 62.5 29.5t16.5 75.5h124q-2 -111 -54 -171.5t-143 -60.5q-53 0 -91.5 17t-70.5 38t-63 38.5t-66 17.5 q-46 0 -65 -31t-19 -73h-120zM446 585h547l-171 464q-26 79 -50 156.5t-50 155.5h-4q-26 -80 -50.5 -157t-49.5 -155z" />
<glyph unicode="&#xc4;" horiz-adv-x="1438" d="M51 0l581 1559h176l581 -1559h-181l-157 428h-665l-154 -428h-181zM386 1873q0 44 27.5 76t81.5 32q53 0 82 -32t29 -76t-28.5 -75t-82.5 -31t-81.5 31t-27.5 75zM446 585h547l-171 464q-26 79 -50 156.5t-50 155.5h-4q-26 -80 -50.5 -157t-49.5 -155zM830 1873 q0 44 29.5 76t82.5 32t80.5 -32t27.5 -76t-27.5 -75t-80.5 -31t-82.5 31t-29.5 75z" />
<glyph unicode="&#xc5;" horiz-adv-x="1438" d="M51 0l581 1559h176l581 -1559h-181l-157 428h-665l-154 -428h-181zM446 585h547l-171 464q-26 79 -50 156.5t-50 155.5h-4q-26 -80 -50.5 -157t-49.5 -155zM508 1915q0 44 15.5 83.5t45 68.5t68.5 46.5t83 17.5t83.5 -17.5t68.5 -46.5t45 -68.5t16 -83.5t-16 -82 t-45 -66.5t-68.5 -45t-83.5 -16.5t-83 16.5t-68.5 45t-45 66.5t-15.5 82zM609 1917q0 -53 32.5 -85t78.5 -32t79.5 32t33.5 85q0 54 -32 87.5t-81 33.5q-46 0 -78.5 -33.5t-32.5 -87.5z" />
<glyph unicode="&#xc6;" horiz-adv-x="1888" d="M46 0l690 1559h1022v-161h-798l153 -514h600v-160h-554l168 -565h446v-159h-572l-127 428h-665q-46 -106 -92 -214t-92 -214h-179zM481 585h548l-141 464l-76 312h-4q-31 -80 -60.5 -157t-62.5 -155z" />
<glyph unicode="&#xc7;" horiz-adv-x="1318" d="M106 780q0 176 48.5 324t142.5 253t230.5 164.5t314.5 59.5q120 0 208.5 -20t164.5 -55l-44 -148q-140 66 -326 66q-266 0 -415.5 -167t-149.5 -477q0 -305 148 -473t414 -168q190 0 343 73l43 -148q-83 -41 -176.5 -62.5t-211.5 -21.5q-190 0 -327.5 57.5t-228 161.5 t-134.5 252t-44 329zM580 -380l185 290h109l-109 -290h-185z" />
<glyph unicode="&#xc8;" horiz-adv-x="1261" d="M190 0v1559h941v-159h-765v-514h720v-162h-720v-565h780v-159h-956zM461 1943l95 130l334 -287l-53 -74z" />
<glyph unicode="&#xc9;" horiz-adv-x="1261" d="M190 0v1559h941v-159h-765v-514h720v-162h-720v-565h780v-159h-956zM461 1786l336 287l95 -130l-377 -231z" />
<glyph unicode="&#xca;" horiz-adv-x="1261" d="M190 0v1559h941v-159h-765v-514h720v-162h-720v-565h780v-159h-956zM350 1716l268 325h118l269 -325h-162l-167 206l-164 -206h-162z" />
<glyph unicode="&#xcb;" horiz-adv-x="1261" d="M190 0v1559h941v-159h-765v-514h720v-162h-720v-565h780v-159h-956zM345 1873q0 44 27.5 76t81.5 32q53 0 82 -32t29 -76t-28.5 -75t-82.5 -31t-81.5 31t-27.5 75zM789 1873q0 44 29.5 76t82.5 32t80.5 -32t27.5 -76t-27.5 -75t-80.5 -31t-82.5 31t-29.5 75z" />
<glyph unicode="&#xcc;" horiz-adv-x="563" d="M68 1943l95 130l334 -287l-53 -74zM194 0v1559h177v-1559h-177z" />
<glyph unicode="&#xcd;" horiz-adv-x="563" d="M70 1786l336 287l95 -130l-377 -231zM194 0v1559h177v-1559h-177z" />
<glyph unicode="&#xce;" horiz-adv-x="563" d="M-41 1716l268 325h118l269 -325h-162l-167 206l-164 -206h-162zM194 0v1559h177v-1559h-177z" />
<glyph unicode="&#xcf;" horiz-adv-x="563" d="M-46 1873q0 44 27.5 76t81.5 32q53 0 82 -32t29 -76t-28.5 -75t-82.5 -31t-81.5 31t-27.5 75zM194 0v1559h177v-1559h-177zM398 1873q0 44 29.5 76t82.5 32t80.5 -32t27.5 -76t-27.5 -75t-80.5 -31t-82.5 31t-29.5 75z" />
<glyph unicode="&#xd0;" horiz-adv-x="1504" d="M31 696v137h159v726h435q382 0 576.5 -196.5t194.5 -580.5t-194.5 -583t-576.5 -199h-435v696h-159zM366 162h259q143 0 254.5 35t186.5 110t114 193t39 282t-39 281t-114 191.5t-186.5 109t-254.5 34.5h-259v-565h411v-137h-411v-534z" />
<glyph unicode="&#xd1;" horiz-adv-x="1533" d="M190 0v1559h187l657 -1055q46 -75 84.5 -145t64.5 -121h5q-12 80 -16 157t-4 172v992h177v-1559h-188l-658 1055q-46 72 -84 143.5t-64 122.5h-4q11 -79 15 -156t4 -172v-993h-176zM421 1749q3 109 52.5 169.5t146.5 60.5q49 0 87.5 -18t70.5 -37.5t64.5 -37t67.5 -17.5 q46 0 62.5 29.5t16.5 75.5h124q-2 -111 -54 -171.5t-143 -60.5q-53 0 -91.5 17t-70.5 38t-63 38.5t-66 17.5q-46 0 -65 -31t-19 -73h-120z" />
<glyph unicode="&#xd2;" horiz-adv-x="1592" d="M106 780q0 171 41 318t126 254.5t215 168t309 60.5q178 0 307.5 -60.5t215 -168t126 -254.5t40.5 -318q0 -172 -40.5 -318.5t-126 -254.5t-215 -167.5t-307.5 -59.5q-179 0 -309 59.5t-215 167.5t-126 255t-41 318zM280 780q0 -153 31 -273.5t96 -206t162.5 -130.5 t227.5 -45t225.5 45t160.5 130.5t96 206t31 273.5q0 152 -31 272.5t-96 206.5t-161.5 131t-224.5 45q-130 0 -227.5 -45t-162.5 -131t-96 -206.5t-31 -272.5zM581 1943l95 130l334 -287l-53 -74z" />
<glyph unicode="&#xd3;" horiz-adv-x="1592" d="M106 780q0 171 41 318t126 254.5t215 168t309 60.5q178 0 307.5 -60.5t215 -168t126 -254.5t40.5 -318q0 -172 -40.5 -318.5t-126 -254.5t-215 -167.5t-307.5 -59.5q-179 0 -309 59.5t-215 167.5t-126 255t-41 318zM280 780q0 -153 31 -273.5t96 -206t162.5 -130.5 t227.5 -45t225.5 45t160.5 130.5t96 206t31 273.5q0 152 -31 272.5t-96 206.5t-161.5 131t-224.5 45q-130 0 -227.5 -45t-162.5 -131t-96 -206.5t-31 -272.5zM580 1786l336 287l95 -130l-377 -231z" />
<glyph unicode="&#xd4;" horiz-adv-x="1592" d="M106 780q0 171 41 318t126 254.5t215 168t309 60.5q178 0 307.5 -60.5t215 -168t126 -254.5t40.5 -318q0 -172 -40.5 -318.5t-126 -254.5t-215 -167.5t-307.5 -59.5q-179 0 -309 59.5t-215 167.5t-126 255t-41 318zM280 780q0 -153 31 -273.5t96 -206t162.5 -130.5 t227.5 -45t225.5 45t160.5 130.5t96 206t31 273.5q0 152 -31 272.5t-96 206.5t-161.5 131t-224.5 45q-130 0 -227.5 -45t-162.5 -131t-96 -206.5t-31 -272.5zM467 1716l268 325h118l269 -325h-162l-167 206l-164 -206h-162z" />
<glyph unicode="&#xd5;" horiz-adv-x="1592" d="M106 780q0 171 41 318t126 254.5t215 168t309 60.5q178 0 307.5 -60.5t215 -168t126 -254.5t40.5 -318q0 -172 -40.5 -318.5t-126 -254.5t-215 -167.5t-307.5 -59.5q-179 0 -309 59.5t-215 167.5t-126 255t-41 318zM280 780q0 -153 31 -273.5t96 -206t162.5 -130.5 t227.5 -45t225.5 45t160.5 130.5t96 206t31 273.5q0 152 -31 272.5t-96 206.5t-161.5 131t-224.5 45q-130 0 -227.5 -45t-162.5 -131t-96 -206.5t-31 -272.5zM448 1749q3 109 52.5 169.5t146.5 60.5q49 0 87.5 -18t70.5 -37.5t64.5 -37t67.5 -17.5q46 0 62.5 29.5t16.5 75.5 h124q-2 -111 -54 -171.5t-143 -60.5q-53 0 -91.5 17t-70.5 38t-63 38.5t-66 17.5q-46 0 -65 -31t-19 -73h-120z" />
<glyph unicode="&#xd6;" horiz-adv-x="1592" d="M106 780q0 171 41 318t126 254.5t215 168t309 60.5q178 0 307.5 -60.5t215 -168t126 -254.5t40.5 -318q0 -172 -40.5 -318.5t-126 -254.5t-215 -167.5t-307.5 -59.5q-179 0 -309 59.5t-215 167.5t-126 255t-41 318zM280 780q0 -153 31 -273.5t96 -206t162.5 -130.5 t227.5 -45t225.5 45t160.5 130.5t96 206t31 273.5q0 152 -31 272.5t-96 206.5t-161.5 131t-224.5 45q-130 0 -227.5 -45t-162.5 -131t-96 -206.5t-31 -272.5zM462 1873q0 44 27.5 76t81.5 32q53 0 82 -32t29 -76t-28.5 -75t-82.5 -31t-81.5 31t-27.5 75zM906 1873 q0 44 29.5 76t82.5 32t80.5 -32t27.5 -76t-27.5 -75t-80.5 -31t-82.5 31t-29.5 75z" />
<glyph unicode="&#xd7;" horiz-adv-x="1309" d="M192 1000l111 109l342 -343l346 343l108 -109l-344 -345l344 -343l-108 -109l-346 343l-342 -343l-109 109l343 343z" />
<glyph unicode="&#xd8;" horiz-adv-x="1592" d="M106 780q0 171 41 318t126 254.5t215 168t309 60.5q212 0 362 -93l102 164h137l-141 -232q117 -110 173 -273.5t56 -366.5q0 -172 -40.5 -318.5t-126 -254.5t-215.5 -167.5t-307 -59.5q-111 0 -202 23t-164 66l-100 -162h-137l142 230q-118 110 -174 274.5t-56 368.5z M280 780q0 -162 34.5 -288t109.5 -212l654 1076q-55 37 -126 58t-155 21q-130 0 -227.5 -45t-162.5 -131t-96 -206.5t-31 -272.5zM512 203q113 -78 285 -78q130 0 225.5 45t160.5 130.5t96 206t31 273.5q0 324 -144 495z" />
<glyph unicode="&#xd9;" horiz-adv-x="1535" d="M185 623v936h175v-939q0 -245 106 -362t302 -117q197 0 302 117t105 362v939h176v-936q0 -166 -40.5 -287t-116.5 -201t-183.5 -117.5t-242.5 -37.5q-134 0 -241.5 37.5t-183.5 117.5t-117 200t-41 288zM554 1943l95 130l334 -287l-53 -74z" />
<glyph unicode="&#xda;" horiz-adv-x="1535" d="M185 623v936h175v-939q0 -245 106 -362t302 -117q197 0 302 117t105 362v939h176v-936q0 -166 -40.5 -287t-116.5 -201t-183.5 -117.5t-242.5 -37.5q-134 0 -241.5 37.5t-183.5 117.5t-117 200t-41 288zM553 1786l336 287l95 -130l-377 -231z" />
<glyph unicode="&#xdb;" horiz-adv-x="1535" d="M185 623v936h175v-939q0 -245 106 -362t302 -117q197 0 302 117t105 362v939h176v-936q0 -166 -40.5 -287t-116.5 -201t-183.5 -117.5t-242.5 -37.5q-134 0 -241.5 37.5t-183.5 117.5t-117 200t-41 288zM440 1716l268 325h118l269 -325h-162l-167 206l-164 -206h-162z " />
<glyph unicode="&#xdc;" horiz-adv-x="1535" d="M185 623v936h175v-939q0 -245 106 -362t302 -117q197 0 302 117t105 362v939h176v-936q0 -166 -40.5 -287t-116.5 -201t-183.5 -117.5t-242.5 -37.5q-134 0 -241.5 37.5t-183.5 117.5t-117 200t-41 288zM435 1873q0 44 27.5 76t81.5 32q53 0 82 -32t29 -76t-28.5 -75 t-82.5 -31t-81.5 31t-27.5 75zM879 1873q0 44 29.5 76t82.5 32t80.5 -32t27.5 -76t-27.5 -75t-80.5 -31t-82.5 31t-29.5 75z" />
<glyph unicode="&#xdd;" horiz-adv-x="1302" d="M37 1559h186l424 -749h6l423 749h187l-525 -899v-660h-175v660zM435 1786l336 287l95 -130l-377 -231z" />
<glyph unicode="&#xde;" horiz-adv-x="1305" d="M190 0v1559h176v-293h326q119 0 216 -34.5t162 -97.5t99 -149.5t34 -187.5q0 -107 -37 -195t-105 -152t-165 -98t-218 -34h-312v-318h-176zM366 479h312q164 0 256.5 82.5t92.5 235.5q0 148 -85 227.5t-250 79.5h-326v-625z" />
<glyph unicode="&#xdf;" horiz-adv-x="1380" d="M174 0v993q0 128 34.5 235.5t104 186t174.5 122.5t246 44q100 0 186 -27.5t145.5 -78.5t94.5 -123t35 -160q0 -62 -23 -114.5t-60 -90.5t-84.5 -62t-96.5 -37q64 -11 127 -40t109 -81t75 -130.5t29 -192.5q0 -115 -35.5 -202t-98 -146t-147 -87.5t-181.5 -28.5 q-201 0 -331 64l37 132q62 -30 134 -46.5t151 -16.5q134 0 217 87t83 246q0 192 -101.5 282.5t-275.5 90.5h-121v141h158q116 0 192 51t76 160q0 69 -25.5 118t-66.5 80t-93.5 46.5t-105.5 15.5q-204 0 -299 -117t-95 -321v-993h-168z" />
<glyph unicode="&#xe0;" horiz-adv-x="1163" d="M97 312q0 187 129.5 281t361.5 94h240v49q0 141 -71.5 202.5t-193.5 61.5q-104 0 -191 -24.5t-160 -59.5l-38 124q62 37 165 68t228 31q218 0 322 -109t104 -297v-733h-130l-35 197q-26 -44 -59 -83t-78.5 -69.5t-105.5 -47.5t-143 -17q-71 0 -134 21.5t-110.5 63 t-74 104.5t-26.5 143zM263 312q0 -97 59.5 -148t147.5 -51q81 0 147 30.5t113 80t72.5 111t25.5 124.5v99h-243q-159 0 -240.5 -63.5t-81.5 -182.5zM366 1490l95 130l334 -287l-53 -74z" />
<glyph unicode="&#xe1;" horiz-adv-x="1163" d="M97 312q0 187 129.5 281t361.5 94h240v49q0 141 -71.5 202.5t-193.5 61.5q-104 0 -191 -24.5t-160 -59.5l-38 124q62 37 165 68t228 31q218 0 322 -109t104 -297v-733h-130l-35 197q-26 -44 -59 -83t-78.5 -69.5t-105.5 -47.5t-143 -17q-71 0 -134 21.5t-110.5 63 t-74 104.5t-26.5 143zM263 312q0 -97 59.5 -148t147.5 -51q81 0 147 30.5t113 80t72.5 111t25.5 124.5v99h-243q-159 0 -240.5 -63.5t-81.5 -182.5zM366 1333l336 287l95 -130l-377 -231z" />
<glyph unicode="&#xe2;" horiz-adv-x="1163" d="M97 312q0 187 129.5 281t361.5 94h240v49q0 141 -71.5 202.5t-193.5 61.5q-104 0 -191 -24.5t-160 -59.5l-38 124q62 37 165 68t228 31q218 0 322 -109t104 -297v-733h-130l-35 197q-26 -44 -59 -83t-78.5 -69.5t-105.5 -47.5t-143 -17q-71 0 -134 21.5t-110.5 63 t-74 104.5t-26.5 143zM255 1263l268 325h118l269 -325h-162l-167 206l-164 -206h-162zM263 312q0 -97 59.5 -148t147.5 -51q81 0 147 30.5t113 80t72.5 111t25.5 124.5v99h-243q-159 0 -240.5 -63.5t-81.5 -182.5z" />
<glyph unicode="&#xe3;" horiz-adv-x="1163" d="M97 312q0 187 129.5 281t361.5 94h240v49q0 141 -71.5 202.5t-193.5 61.5q-104 0 -191 -24.5t-160 -59.5l-38 124q62 37 165 68t228 31q218 0 322 -109t104 -297v-733h-130l-35 197q-26 -44 -59 -83t-78.5 -69.5t-105.5 -47.5t-143 -17q-71 0 -134 21.5t-110.5 63 t-74 104.5t-26.5 143zM236 1296q3 109 52.5 169.5t146.5 60.5q49 0 87.5 -18t70.5 -37.5t64.5 -37t67.5 -17.5q46 0 62.5 29.5t16.5 75.5h124q-2 -111 -54 -171.5t-143 -60.5q-53 0 -91.5 17t-70.5 38t-63 38.5t-66 17.5q-46 0 -65 -31t-19 -73h-120zM263 312 q0 -97 59.5 -148t147.5 -51q81 0 147 30.5t113 80t72.5 111t25.5 124.5v99h-243q-159 0 -240.5 -63.5t-81.5 -182.5z" />
<glyph unicode="&#xe4;" horiz-adv-x="1163" d="M97 312q0 187 129.5 281t361.5 94h240v49q0 141 -71.5 202.5t-193.5 61.5q-104 0 -191 -24.5t-160 -59.5l-38 124q62 37 165 68t228 31q218 0 322 -109t104 -297v-733h-130l-35 197q-26 -44 -59 -83t-78.5 -69.5t-105.5 -47.5t-143 -17q-71 0 -134 21.5t-110.5 63 t-74 104.5t-26.5 143zM250 1420q0 44 27.5 76t81.5 32q53 0 82 -32t29 -76t-28.5 -75t-82.5 -31t-81.5 31t-27.5 75zM263 312q0 -97 59.5 -148t147.5 -51q81 0 147 30.5t113 80t72.5 111t25.5 124.5v99h-243q-159 0 -240.5 -63.5t-81.5 -182.5zM694 1420q0 44 29.5 76 t82.5 32t80.5 -32t27.5 -76t-27.5 -75t-80.5 -31t-82.5 31t-29.5 75z" />
<glyph unicode="&#xe5;" horiz-adv-x="1163" d="M97 312q0 187 129.5 281t361.5 94h240v49q0 141 -71.5 202.5t-193.5 61.5q-104 0 -191 -24.5t-160 -59.5l-38 124q62 37 165 68t228 31q218 0 322 -109t104 -297v-733h-130l-35 197q-26 -44 -59 -83t-78.5 -69.5t-105.5 -47.5t-143 -17q-71 0 -134 21.5t-110.5 63 t-74 104.5t-26.5 143zM263 312q0 -97 59.5 -148t147.5 -51q81 0 147 30.5t113 80t72.5 111t25.5 124.5v99h-243q-159 0 -240.5 -63.5t-81.5 -182.5zM369 1462q0 44 15.5 83.5t45 68.5t68.5 46.5t83 17.5t83.5 -17.5t68.5 -46.5t45 -68.5t16 -83.5t-16 -82t-45 -66.5 t-68.5 -45t-83.5 -16.5t-83 16.5t-68.5 45t-45 66.5t-15.5 82zM470 1464q0 -53 32.5 -85t78.5 -32t79.5 32t33.5 85q0 54 -32 87.5t-81 33.5q-46 0 -78.5 -33.5t-32.5 -87.5z" />
<glyph unicode="&#xe6;" horiz-adv-x="1841" d="M95 312q0 187 129.5 281t360.5 94h241v49q0 141 -71.5 202.5t-194.5 61.5q-103 0 -190.5 -22t-159.5 -57l-38 123q62 37 165 66t228 29q144 0 229 -49.5t131 -140.5q54 88 151 139t234 51q212 0 317.5 -124.5t105.5 -338.5q0 -56 -5.5 -104.5t-17.5 -90.5h-725 q16 -174 103 -268.5t268 -94.5q146 0 280 65l40 -128q-71 -37 -150.5 -56t-185.5 -19q-183 0 -281.5 72.5t-148.5 204.5q-29 -58 -73 -108t-101.5 -88t-131.5 -59.5t-164 -21.5q-72 0 -134.5 21.5t-110 63t-74 104.5t-26.5 143zM261 312q0 -97 59.5 -148t147.5 -51 q81 0 146.5 29.5t113 77t73 109.5t25.5 130v99h-243q-159 0 -240.5 -63.5t-81.5 -182.5zM988 609h588q0 5 1.5 32.5t1.5 34.5q0 159 -60.5 245t-208.5 86q-88 0 -147 -30t-96.5 -83.5t-55.5 -126.5t-23 -158z" />
<glyph unicode="&#xe7;" horiz-adv-x="1056" d="M102 560q0 124 32 230t99.5 183.5t169 121.5t238.5 44q95 0 174 -20t145 -52l-39 -130q-60 28 -129.5 45.5t-150.5 17.5q-95 0 -165.5 -32.5t-115.5 -91.5t-67 -140t-22 -176q0 -94 22 -175.5t68 -140.5t117.5 -92.5t171.5 -33.5q71 0 144.5 17.5t137.5 49.5l40 -127 q-71 -38 -151.5 -58t-184.5 -20q-137 0 -236 43.5t-166.5 122.5t-99.5 185t-32 229zM382 -380l185 290h109l-109 -290h-185z" />
<glyph unicode="&#xe8;" horiz-adv-x="1159" d="M106 560q0 124 30 230t91.5 183.5t157.5 121.5t229 44q218 0 328.5 -124.5t110.5 -338.5q0 -56 -6.5 -104.5t-19.5 -90.5h-756q14 -174 110 -268.5t277 -94.5q76 0 154 16t142 49l42 -128q-72 -37 -159 -56t-194 -19q-137 0 -237.5 41t-166 116t-99.5 183t-34 240z M271 609h619q3 5 3.5 32.5t0.5 34.5q0 159 -65 245t-215 86q-89 0 -151.5 -30t-103.5 -83.5t-62 -126.5t-26 -158zM364 1490l95 130l334 -287l-53 -74z" />
<glyph unicode="&#xe9;" horiz-adv-x="1159" d="M106 560q0 124 30 230t91.5 183.5t157.5 121.5t229 44q218 0 328.5 -124.5t110.5 -338.5q0 -56 -6.5 -104.5t-19.5 -90.5h-756q14 -174 110 -268.5t277 -94.5q76 0 154 16t142 49l42 -128q-72 -37 -159 -56t-194 -19q-137 0 -237.5 41t-166 116t-99.5 183t-34 240z M271 609h619q3 5 3.5 32.5t0.5 34.5q0 159 -65 245t-215 86q-89 0 -151.5 -30t-103.5 -83.5t-62 -126.5t-26 -158zM363 1333l336 287l95 -130l-377 -231z" />
<glyph unicode="&#xea;" horiz-adv-x="1159" d="M106 560q0 124 30 230t91.5 183.5t157.5 121.5t229 44q218 0 328.5 -124.5t110.5 -338.5q0 -56 -6.5 -104.5t-19.5 -90.5h-756q14 -174 110 -268.5t277 -94.5q76 0 154 16t142 49l42 -128q-72 -37 -159 -56t-194 -19q-137 0 -237.5 41t-166 116t-99.5 183t-34 240z M252 1263l268 325h118l269 -325h-162l-167 206l-164 -206h-162zM271 609h619q3 5 3.5 32.5t0.5 34.5q0 159 -65 245t-215 86q-89 0 -151.5 -30t-103.5 -83.5t-62 -126.5t-26 -158z" />
<glyph unicode="&#xeb;" horiz-adv-x="1159" d="M106 560q0 124 30 230t91.5 183.5t157.5 121.5t229 44q218 0 328.5 -124.5t110.5 -338.5q0 -56 -6.5 -104.5t-19.5 -90.5h-756q14 -174 110 -268.5t277 -94.5q76 0 154 16t142 49l42 -128q-72 -37 -159 -56t-194 -19q-137 0 -237.5 41t-166 116t-99.5 183t-34 240z M247 1420q0 44 27.5 76t81.5 32q53 0 82 -32t29 -76t-28.5 -75t-82.5 -31t-81.5 31t-27.5 75zM271 609h619q3 5 3.5 32.5t0.5 34.5q0 159 -65 245t-215 86q-89 0 -151.5 -30t-103.5 -83.5t-62 -126.5t-26 -158zM691 1420q0 44 29.5 76t82.5 32t80.5 -32t27.5 -76t-27.5 -75 t-80.5 -31t-82.5 31t-29.5 75z" />
<glyph unicode="&#xec;" horiz-adv-x="541" d="M57 1490l95 130l334 -287l-53 -74zM185 0v1118h171v-1118h-171z" />
<glyph unicode="&#xed;" horiz-adv-x="541" d="M58 1333l336 287l95 -130l-377 -231zM185 0v1118h171v-1118h-171z" />
<glyph unicode="&#xee;" horiz-adv-x="541" d="M-53 1263l268 325h118l269 -325h-162l-167 206l-164 -206h-162zM185 0v1118h171v-1118h-171z" />
<glyph unicode="&#xef;" horiz-adv-x="541" d="M-58 1420q0 44 27.5 76t81.5 32q53 0 82 -32t29 -76t-28.5 -75t-82.5 -31t-81.5 31t-27.5 75zM185 0v1118h171v-1118h-171zM386 1420q0 44 29.5 76t82.5 32t80.5 -32t27.5 -76t-27.5 -75t-80.5 -31t-82.5 31t-29.5 75z" />
<glyph unicode="&#xf0;" horiz-adv-x="1272" d="M97 546q0 120 37.5 227.5t105 189t163.5 129t213 47.5q108 0 186.5 -35t139.5 -97h7q-30 86 -95 169t-152 157l-269 -125l-40 90l218 102q-57 42 -121 74t-132 56l57 108q176 -57 327 -176l258 123l46 -88l-220 -104q153 -145 246.5 -349t93.5 -461q0 -125 -35.5 -236 t-105 -191.5t-170 -128t-228.5 -47.5q-123 0 -221.5 44.5t-166 122.5t-105 181t-37.5 218zM267 550q0 -90 24 -168.5t70 -137.5t113 -92.5t153 -33.5q91 0 161.5 40.5t116.5 105.5t70.5 143.5t24.5 152.5q0 89 -21 168.5t-66 140.5t-114.5 98.5t-166.5 37.5 q-91 0 -160.5 -36.5t-114.5 -98.5t-67.5 -144.5t-22.5 -175.5z" />
<glyph unicode="&#xf1;" horiz-adv-x="1294" d="M176 0v1118h139l32 -181q26 33 64 69t88.5 64.5t112 48.5t133.5 20q178 0 278.5 -116t100.5 -321v-702h-168v702q0 132 -64 207.5t-174 75.5q-118 0 -214.5 -58.5t-156.5 -144.5v-782h-171zM300 1296q3 109 52.5 169.5t146.5 60.5q49 0 87.5 -18t70.5 -37.5t64.5 -37 t67.5 -17.5q46 0 62.5 29.5t16.5 75.5h124q-2 -111 -54 -171.5t-143 -60.5q-53 0 -91.5 17t-70.5 38t-63 38.5t-66 17.5q-46 0 -65 -31t-19 -73h-120z" />
<glyph unicode="&#xf2;" horiz-adv-x="1244" d="M102 560q0 124 31 229t95 183.5t162 122.5t233 44q134 0 231 -44t161.5 -122.5t96.5 -184t32 -228.5t-32 -229t-96.5 -185t-161.5 -122.5t-231 -43.5q-135 0 -233 43.5t-162 122.5t-95 185t-31 229zM271 560q0 -94 20.5 -176.5t63.5 -141.5t109 -93t159 -34 q92 0 158.5 34t108.5 93t63 141.5t21 176.5q0 95 -21 175t-63 138.5t-108.5 92.5t-158.5 34q-93 0 -159 -34t-109 -92.5t-63.5 -138.5t-20.5 -175zM408 1490l95 130l334 -287l-53 -74z" />
<glyph unicode="&#xf3;" horiz-adv-x="1244" d="M102 560q0 124 31 229t95 183.5t162 122.5t233 44q134 0 231 -44t161.5 -122.5t96.5 -184t32 -228.5t-32 -229t-96.5 -185t-161.5 -122.5t-231 -43.5q-135 0 -233 43.5t-162 122.5t-95 185t-31 229zM271 560q0 -94 20.5 -176.5t63.5 -141.5t109 -93t159 -34 q92 0 158.5 34t108.5 93t63 141.5t21 176.5q0 95 -21 175t-63 138.5t-108.5 92.5t-158.5 34q-93 0 -159 -34t-109 -92.5t-63.5 -138.5t-20.5 -175zM407 1333l336 287l95 -130l-377 -231z" />
<glyph unicode="&#xf4;" horiz-adv-x="1244" d="M102 560q0 124 31 229t95 183.5t162 122.5t233 44q134 0 231 -44t161.5 -122.5t96.5 -184t32 -228.5t-32 -229t-96.5 -185t-161.5 -122.5t-231 -43.5q-135 0 -233 43.5t-162 122.5t-95 185t-31 229zM271 560q0 -94 20.5 -176.5t63.5 -141.5t109 -93t159 -34 q92 0 158.5 34t108.5 93t63 141.5t21 176.5q0 95 -21 175t-63 138.5t-108.5 92.5t-158.5 34q-93 0 -159 -34t-109 -92.5t-63.5 -138.5t-20.5 -175zM294 1263l268 325h118l269 -325h-162l-167 206l-164 -206h-162z" />
<glyph unicode="&#xf5;" horiz-adv-x="1244" d="M102 560q0 124 31 229t95 183.5t162 122.5t233 44q134 0 231 -44t161.5 -122.5t96.5 -184t32 -228.5t-32 -229t-96.5 -185t-161.5 -122.5t-231 -43.5q-135 0 -233 43.5t-162 122.5t-95 185t-31 229zM271 560q0 -94 20.5 -176.5t63.5 -141.5t109 -93t159 -34 q92 0 158.5 34t108.5 93t63 141.5t21 176.5q0 95 -21 175t-63 138.5t-108.5 92.5t-158.5 34q-93 0 -159 -34t-109 -92.5t-63.5 -138.5t-20.5 -175zM275 1296q3 109 52.5 169.5t146.5 60.5q49 0 87.5 -18t70.5 -37.5t64.5 -37t67.5 -17.5q46 0 62.5 29.5t16.5 75.5h124 q-2 -111 -54 -171.5t-143 -60.5q-53 0 -91.5 17t-70.5 38t-63 38.5t-66 17.5q-46 0 -65 -31t-19 -73h-120z" />
<glyph unicode="&#xf6;" horiz-adv-x="1244" d="M102 560q0 124 31 229t95 183.5t162 122.5t233 44q134 0 231 -44t161.5 -122.5t96.5 -184t32 -228.5t-32 -229t-96.5 -185t-161.5 -122.5t-231 -43.5q-135 0 -233 43.5t-162 122.5t-95 185t-31 229zM271 560q0 -94 20.5 -176.5t63.5 -141.5t109 -93t159 -34 q92 0 158.5 34t108.5 93t63 141.5t21 176.5q0 95 -21 175t-63 138.5t-108.5 92.5t-158.5 34q-93 0 -159 -34t-109 -92.5t-63.5 -138.5t-20.5 -175zM289 1420q0 44 27.5 76t81.5 32q53 0 82 -32t29 -76t-28.5 -75t-82.5 -31t-81.5 31t-27.5 75zM733 1420q0 44 29.5 76 t82.5 32t80.5 -32t27.5 -76t-27.5 -75t-80.5 -31t-82.5 31t-29.5 75z" />
<glyph unicode="&#xf7;" horiz-adv-x="1307" d="M164 585v142h963v-142h-963zM504 305q0 53 35 92.5t99 39.5q67 0 102 -39.5t35 -92.5t-34.5 -92t-102.5 -39q-64 0 -99 39t-35 92zM504 1007q0 55 35 94.5t99 39.5q67 0 102 -39.5t35 -94.5q0 -53 -34.5 -92.5t-102.5 -39.5q-64 0 -99 39.5t-35 92.5z" />
<glyph unicode="&#xf8;" horiz-adv-x="1244" d="M102 560q0 124 31 229t95 183.5t162 122.5t233 44q125 0 222 -42l87 162h121l-116 -210q104 -79 155.5 -206.5t51.5 -282.5q0 -123 -32 -229t-96.5 -185t-161.5 -122.5t-231 -43.5q-72 0 -132 12.5t-114 35.5l-65 -121h-120l97 177q-97 81 -142 202t-45 274zM271 560 q0 -103 23.5 -188t73.5 -145l405 740q-64 33 -150 33q-93 0 -159 -34t-109 -92.5t-63.5 -138.5t-20.5 -175zM449 157q37 -18 80 -30t94 -12q92 0 158.5 34t108.5 93t63 141.5t21 176.5q0 111 -27.5 199.5t-85.5 147.5z" />
<glyph unicode="&#xf9;" horiz-adv-x="1279" d="M172 417v701h166v-701q0 -137 60.5 -212t164.5 -75q62 0 117.5 18t101.5 49.5t84.5 73t65.5 85.5v762h172v-1118h-137l-35 197q-20 -35 -56 -74t-86 -71t-113 -52t-143 -20q-159 0 -260.5 104t-101.5 333zM424 1490l95 130l334 -287l-53 -74z" />
<glyph unicode="&#xfa;" horiz-adv-x="1279" d="M172 417v701h166v-701q0 -137 60.5 -212t164.5 -75q62 0 117.5 18t101.5 49.5t84.5 73t65.5 85.5v762h172v-1118h-137l-35 197q-20 -35 -56 -74t-86 -71t-113 -52t-143 -20q-159 0 -260.5 104t-101.5 333zM423 1333l336 287l95 -130l-377 -231z" />
<glyph unicode="&#xfb;" horiz-adv-x="1279" d="M172 417v701h166v-701q0 -137 60.5 -212t164.5 -75q62 0 117.5 18t101.5 49.5t84.5 73t65.5 85.5v762h172v-1118h-137l-35 197q-20 -35 -56 -74t-86 -71t-113 -52t-143 -20q-159 0 -260.5 104t-101.5 333zM312 1263l268 325h118l269 -325h-162l-167 206l-164 -206h-162z " />
<glyph unicode="&#xfc;" horiz-adv-x="1279" d="M172 417v701h166v-701q0 -137 60.5 -212t164.5 -75q62 0 117.5 18t101.5 49.5t84.5 73t65.5 85.5v762h172v-1118h-137l-35 197q-20 -35 -56 -74t-86 -71t-113 -52t-143 -20q-159 0 -260.5 104t-101.5 333zM307 1420q0 44 27.5 76t81.5 32q53 0 82 -32t29 -76t-28.5 -75 t-82.5 -31t-81.5 31t-27.5 75zM751 1420q0 44 29.5 76t82.5 32t80.5 -32t27.5 -76t-27.5 -75t-80.5 -31t-82.5 31t-29.5 75z" />
<glyph unicode="&#xfd;" horiz-adv-x="1272" d="M172 437v681h166v-681q0 -136 58.5 -211.5t166.5 -75.5q62 0 116 20t99.5 51t82.5 71.5t64 84.5v741h172v-1034q0 -278 -131 -414t-369 -136q-111 0 -215 32t-167 74l44 135q64 -39 147.5 -63t181.5 -24q81 0 143 19.5t106 65.5t66 122.5t22 190.5v134q-20 -37 -55 -75.5 t-83.5 -70.5t-109.5 -53t-136 -21q-171 0 -270 104t-99 333zM421 1333l336 287l95 -130l-377 -231z" />
<glyph unicode="&#xfe;" horiz-adv-x="1358" d="M181 -442v2001h170v-622q23 33 61.5 69t88 64.5t111 48.5t133.5 20q108 0 190.5 -45t137 -122.5t82.5 -181t28 -216.5q0 -148 -34 -259.5t-95 -186.5t-146.5 -111.5t-187.5 -36.5q-128 0 -225 63t-144 154v-639h-170zM351 532q0 -86 27 -158.5t73 -127t109 -84.5t134 -30 q62 0 120 23.5t102 75t71 136t27 207.5q0 208 -83 308.5t-216 100.5q-108 0 -203 -56.5t-161 -144.5v-250z" />
<glyph unicode="&#xff;" horiz-adv-x="1272" d="M172 437v681h166v-681q0 -136 58.5 -211.5t166.5 -75.5q62 0 116 20t99.5 51t82.5 71.5t64 84.5v741h172v-1034q0 -278 -131 -414t-369 -136q-111 0 -215 32t-167 74l44 135q64 -39 147.5 -63t181.5 -24q81 0 143 19.5t106 65.5t66 122.5t22 190.5v134q-20 -37 -55 -75.5 t-83.5 -70.5t-109.5 -53t-136 -21q-171 0 -270 104t-99 333zM303 1420q0 44 27.5 76t81.5 32q53 0 82 -32t29 -76t-28.5 -75t-82.5 -31t-81.5 31t-27.5 75zM747 1420q0 44 29.5 76t82.5 32t80.5 -32t27.5 -76t-27.5 -75t-80.5 -31t-82.5 31t-29.5 75z" />
<glyph unicode="&#x131;" horiz-adv-x="541" d="M185 0v1118h171v-1118h-171z" />
<glyph unicode="&#x141;" horiz-adv-x="1179" d="M51 605v159l139 60v735h176v-658l345 150v-161l-345 -150v-578h745v-162h-921v664z" />
<glyph unicode="&#x142;" horiz-adv-x="541" d="M58 605v159l125 53v742h171v-665l130 55v-160l-130 -56v-733h-171v658z" />
<glyph unicode="&#x152;" horiz-adv-x="2292" d="M104 780q0 171 40.5 318t123.5 254.5t211 168t298 60.5q86 0 154.5 -17.5t123 -47.5t95 -72t67.5 -88v203h947v-161h-771v-514h725v-160h-725v-565h785v-159h-961v201q-60 -95 -163 -158t-270 -63q-174 0 -302 59.5t-212.5 167.5t-125 255t-40.5 318zM280 780 q0 -305 126 -480t387 -175q75 0 140 22.5t119 59t96 85t69 104.5v313v474q-62 118 -175.5 184t-248.5 66q-261 0 -387 -175t-126 -478z" />
<glyph unicode="&#x153;" horiz-adv-x="1943" d="M99 560q0 124 31.5 229t95 183.5t161 122.5t231.5 44q146 0 235 -56t135 -136q60 88 160 140t245 52q223 0 332.5 -125.5t109.5 -340.5q0 -53 -6.5 -102.5t-18.5 -89.5h-755q16 -174 110 -270t275 -96q76 0 155 17.5t141 50.5q11 -33 20.5 -64t18.5 -64 q-139 -76 -349 -75q-152 0 -260 49.5t-175 144.5q-55 -88 -141 -141t-232 -53q-134 0 -231.5 43.5t-161 122.5t-95 185t-31.5 229zM269 560q0 -94 19 -176.5t62 -141.5t109 -93t159 -34q118 0 193 50t114 138q-18 53 -28.5 119t-10.5 138q0 137 35 248q-40 88 -112.5 140 t-190.5 52q-93 0 -159 -34t-109 -92.5t-62 -138.5t-19 -175zM1053 609h621q0 16 1 32.5t1 31.5q0 160 -65 247t-218 87q-88 0 -150.5 -30t-103 -83.5t-61 -126.5t-25.5 -158z" />
<glyph unicode="&#x160;" horiz-adv-x="1221" d="M128 69l46 143q67 -32 162 -55t217 -23q83 0 153.5 16t121.5 50t80 87t29 128q0 74 -30 122t-82 83t-119.5 59.5t-140.5 47.5q-75 22 -151 55t-141 82.5t-105 123.5t-40 183q0 88 28.5 163t91 129.5t159.5 86t234 31.5q115 0 210.5 -22t171.5 -62l-47 -143 q-66 33 -154.5 52.5t-180.5 19.5q-183 0 -264 -70.5t-81 -182.5q0 -67 27.5 -113t75 -79.5t111.5 -59t135 -49.5q84 -28 166.5 -61.5t148 -85.5t106 -127t40.5 -186q0 -110 -39.5 -191.5t-110 -134.5t-169 -79.5t-213.5 -26.5q-166 0 -269.5 25.5t-176.5 63.5zM283 2036h162 l164 -206l167 206h162l-269 -324h-118z" />
<glyph unicode="&#x161;" horiz-adv-x="1001" d="M111 51l39 128q60 -29 141.5 -47.5t167.5 -18.5q141 0 201 52.5t60 126.5q0 92 -78.5 139.5t-192.5 80.5q-75 20 -136 48t-106 67.5t-69.5 92.5t-24.5 128q0 141 108 216t289 75q97 0 184.5 -18.5t155.5 -51.5l-40 -132q-62 30 -133.5 47.5t-153.5 17.5 q-125 0 -185 -41.5t-60 -110.5q0 -82 62 -123.5t167 -73.5q188 -57 283.5 -137.5t95.5 -226.5q0 -141 -101.5 -225t-318.5 -84q-107 0 -199.5 18t-155.5 53zM173 1583h162l164 -206l167 206h162l-269 -324h-118z" />
<glyph unicode="&#x178;" horiz-adv-x="1302" d="M37 1559h186l424 -749h6l423 749h187l-525 -899v-660h-175v660zM319 1873q0 44 27.5 76t81.5 32q53 0 82 -32t29 -76t-28.5 -75t-82.5 -31t-81.5 31t-27.5 75zM763 1873q0 44 29.5 76t82.5 32t80.5 -32t27.5 -76t-27.5 -75t-80.5 -31t-82.5 31t-29.5 75z" />
<glyph unicode="&#x17d;" horiz-adv-x="1265" d="M102 0v123l826 1277h-769v159h987v-124l-824 -1276h837v-159h-1057zM306 2036h162l164 -206l167 206h162l-269 -324h-118z" />
<glyph unicode="&#x17e;" horiz-adv-x="1038" d="M97 0v99l612 880h-565v139h772v-100l-611 -879h632v-139h-840zM193 1583h162l164 -206l167 206h162l-269 -324h-118z" />
<glyph unicode="&#x192;" horiz-adv-x="1309" d="M84 -134q15 32 29.5 65.5t27.5 66.5q31 -14 63 -20t65 -6q102 0 143 70.5t60 200.5q18 143 38 284.5t38 282.5h-212v109h229q14 132 34.5 242.5t65 192t118.5 127t193 45.5q56 0 100 -13t77 -32q-16 -32 -31.5 -65.5t-28.5 -66.5q-31 14 -63 20t-65 6 q-104 0 -144.5 -70.5t-58.5 -202.5l-29 -183h292v-109h-305q-18 -141 -38 -282.5t-39 -282.5q-14 -95 -40.5 -172.5t-71.5 -132.5t-112.5 -87t-161.5 -32q-56 0 -99 13t-74 32z" />
<glyph unicode="&#x2c6;" horiz-adv-x="682" d="M14 1263l268 325h118l269 -325h-162l-167 206l-164 -206h-162z" />
<glyph unicode="&#x2c7;" horiz-adv-x="682" d="M14 1583h162l164 -206l167 206h162l-269 -324h-118z" />
<glyph unicode="&#x2d8;" horiz-adv-x="682" d="M14 1603h123q11 -76 64 -123t141 -47q86 0 140.5 47.5t65.5 122.5h119q-7 -62 -30 -115t-65 -93.5t-99.5 -64t-130.5 -23.5q-74 0 -131.5 23.5t-99.5 64t-66.5 93.5t-30.5 115z" />
<glyph unicode="&#x2d9;" horiz-adv-x="682" d="M220 1431q0 46 31 80.5t89 34.5t89.5 -34.5t31.5 -80.5q0 -49 -31.5 -84t-89.5 -35t-89 35t-31 84z" />
<glyph unicode="&#x2da;" horiz-adv-x="682" d="M128 1462q0 44 15.5 83.5t45 68.5t68.5 46.5t83 17.5t83.5 -17.5t68.5 -46.5t45 -68.5t16 -83.5t-16 -82t-45 -66.5t-68.5 -45t-83.5 -16.5t-83 16.5t-68.5 45t-45 66.5t-15.5 82zM229 1464q0 -53 32.5 -85t78.5 -32t79.5 32t33.5 85q0 54 -32 87.5t-81 33.5 q-46 0 -78.5 -33.5t-32.5 -87.5z" />
<glyph unicode="&#x2db;" horiz-adv-x="682" d="M280 5h109l181 -278h-186z" />
<glyph unicode="&#x2dc;" horiz-adv-x="682" d="M-5 1296q3 109 52.5 169.5t146.5 60.5q49 0 87.5 -18t70.5 -37.5t64.5 -37t67.5 -17.5q46 0 62.5 29.5t16.5 75.5h124q-2 -111 -54 -171.5t-143 -60.5q-53 0 -91.5 17t-70.5 38t-63 38.5t-66 17.5q-46 0 -65 -31t-19 -73h-120z" />
<glyph unicode="&#x2dd;" horiz-adv-x="682" d="M93 1277l192 315h185l-252 -315h-125zM453 1277l192 315h183l-249 -315h-126z" />
<glyph unicode="&#x3a9;" horiz-adv-x="1723" d="M162 886q0 157 48.5 286t139 219t219.5 140t292 50q162 0 292 -50t220.5 -140t139.5 -218.5t49 -286.5q0 -135 -39 -248t-96 -204.5t-123 -162t-119 -118.5h290v-153h-492v115q58 44 127.5 117t131 168t103.5 208.5t42 243.5q0 273 -140.5 419.5t-380.5 146.5 q-248 0 -389 -147t-141 -419q0 -130 41.5 -243.5t102.5 -208.5t130.5 -168t127.5 -117v-115h-491v153h290q-53 48 -118 118.5t-123 162t-96 205.5t-38 247z" />
<glyph unicode="&#x3c0;" horiz-adv-x="1374" d="M69 1060q42 26 123 43t164 17h921v-141h-277v-690q0 -79 30 -126.5t97 -47.5q44 0 70.5 6.5t47.5 17.5l38 -116q-31 -18 -77.5 -28.5t-99.5 -10.5q-81 0 -133 25.5t-83 69.5t-44 103t-13 123v674h-310v-528q0 -55 -5.5 -119.5t-15 -127.5t-24.5 -117t-32 -87h-168 q20 37 35.5 95t23.5 120.5t12.5 124.5t4.5 111v528q-84 -3 -147 -17.5t-112 -38.5z" />
<glyph unicode="&#xe00;" horiz-adv-x="450" />
<glyph unicode="&#xe01;" horiz-adv-x="1389" d="M115 935q21 71 71 141t125 123t170 85t204 32q130 0 229.5 -36.5t165.5 -103.5t99 -159t33 -200v-817h-175v817q0 172 -90 260.5t-262 88.5q-137 0 -240 -61t-144 -158l187 -172q-132 -60 -132 -208v-567h-175v541q0 75 33 137t96 93z" />
<glyph unicode="&#xe02;" horiz-adv-x="1276" d="M155 415v179q0 67 36 125t80 110t79.5 101t35.5 95v61q0 60 -59 60h-157v150h172q118 0 164.5 -53t46.5 -146v-70q0 -64 -36 -119.5t-77.5 -107.5t-77 -103.5t-35.5 -102.5v-179q0 -142 70.5 -214.5t229.5 -72.5q153 0 224.5 64.5t71.5 240.5v863h176v-861 q0 -225 -113.5 -340t-358.5 -115t-358.5 119t-113.5 316z" />
<glyph unicode="&#xe03;" horiz-adv-x="1285" d="M84 1162v154q39 -22 79 -43t80 -41q23 37 64.5 56t88.5 19q94 0 139.5 -56.5t45.5 -155.5v-51q0 -74 -38.5 -134t-84.5 -112.5t-84 -102.5t-38 -103v-177q0 -142 70.5 -214.5t229.5 -72.5q153 0 224.5 64.5t71.5 240.5v863h177v-861q0 -225 -114 -340t-359 -115 t-358.5 119t-113.5 316v177q0 67 38.5 125t86 111t85.5 105t38 111v51q0 26 -13 44t-45 18q-33 0 -55.5 -22t-37.5 -59q-44 22 -88.5 43.5t-88.5 42.5z" />
<glyph unicode="&#xe04;" horiz-adv-x="1427" d="M179 0v822q0 103 34 193.5t102.5 158t168 105t229.5 37.5t230.5 -37.5t168.5 -105t103 -158t35 -193.5v-822h-176v824q0 152 -90 247t-271 95t-270 -95t-89 -247v-294q32 71 101.5 121.5t171.5 50.5h159v-156h-159q-99 0 -170 -56.5t-103 -165.5v-324h-175z" />
<glyph unicode="&#xe05;" horiz-adv-x="1448" d="M181 0v898q0 174 75 279.5t234 138.5l234 -157l234 157q310 -66 310 -418v-898h-175v916q0 190 -142 237l-227 -137l-227 137q-141 -47 -141 -237v-386q33 71 102.5 121.5t173.5 50.5h159v-156h-159q-102 0 -172.5 -56.5t-103.5 -165.5v-324h-175z" />
<glyph unicode="&#xe06;" horiz-adv-x="1392" d="M79 1164v152l159 -84q23 37 65 56t88 19q95 0 140 -56.5t45 -153.5v-51q0 -79 -33 -141.5t-75 -118t-76 -105t-34 -102.5v-172q26 -56 67 -106.5t93 -88.5t113 -60t124 -22q152 0 218.5 91t66.5 260v815h175v-817q0 -236 -107.5 -367.5t-332.5 -131.5q-139 0 -243 58.5 t-174 164.5l-11 -203h-164v579q0 66 35.5 124.5t77.5 113.5t77.5 110.5t35.5 118.5v49q0 28 -13.5 45t-46.5 17q-64 0 -90 -81z" />
<glyph unicode="&#xe07;" horiz-adv-x="1283" d="M35 1296h173l350 -1146h34q79 0 152 36.5t128.5 105t89.5 168.5t34 227q0 130 -23.5 221.5t-64 148t-95 83t-117.5 26.5q-79 0 -143 -22l-25 139q35 18 85.5 25.5t92.5 7.5q102 0 187.5 -40t147 -119t94.5 -197t33 -273q0 -159 -47 -287.5t-127 -216.5t-185 -135.5 t-221 -47.5h-160z" />
<glyph unicode="&#xe08;" horiz-adv-x="1244" d="M42 1141q92 75 223 125t276 50q146 0 256 -42t184 -123.5t111 -197.5t37 -261q0 -153 -41.5 -279t-116.5 -218.5t-179.5 -143.5t-228.5 -51h-146l-130 534q-11 54 -62 54h-88v150h101q93 0 143 -35.5t70 -132.5l97 -420h33q71 0 138 36.5t119 104t84 170t32 233.5 q0 245 -106 358.5t-304 113.5q-137 0 -249 -46t-198 -115z" />
<glyph unicode="&#xe09;" horiz-adv-x="1358" d="M86 1144q104 74 239.5 123t306.5 49q136 0 239 -37.5t171.5 -108.5t103 -170t34.5 -223v-777h-164l-11 201q-31 -46 -69 -86t-86.5 -70.5t-111 -47.5t-144.5 -17q-187 0 -281.5 95t-94.5 296v163q0 54 -46 54h-75v148h118q81 0 127.5 -41.5t46.5 -136.5v-181 q0 -130 55 -188.5t188 -58.5q62 0 119 22t104.5 60t85.5 88.5t64 106.5v370q0 186 -93 287.5t-278 101.5q-146 0 -269.5 -45t-214.5 -110z" />
<glyph unicode="&#xe0a;" horiz-adv-x="1279" d="M155 417v177q0 67 37 126.5t80 111.5t80 99.5t37 95.5v59q0 60 -62 60h-157v150h175q115 0 163 -53t48 -146v-68q0 -64 -36 -120.5t-79 -108.5t-78.5 -102.5t-35.5 -103.5v-177q0 -144 71.5 -216.5t230.5 -72.5q75 0 130.5 14.5t91 50.5t54 95t18.5 147v241 q0 99 -44 145.5t-113 46.5h-46l-26 74l253 354h192l-260 -338q97 -16 160 -92.5t63 -187.5v-241q0 -227 -113.5 -342t-359.5 -115q-245 0 -359.5 120t-114.5 317z" />
<glyph unicode="&#xe0b;" horiz-adv-x="1285" d="M84 1164v152l159 -84q23 37 64.5 56t88.5 19q94 0 139.5 -56.5t45.5 -153.5v-51q0 -74 -38.5 -134t-84.5 -113.5t-84 -102.5t-38 -102v-177q0 -144 70.5 -216.5t229.5 -72.5q75 0 130.5 14.5t92.5 50.5t55 95t18 147v241q0 99 -43.5 145.5t-113.5 46.5h-46l-25 74 l250 354h192l-260 -338q97 -16 160 -92.5t63 -187.5v-241q0 -227 -114 -342t-359 -115q-123 0 -211.5 31t-146.5 88.5t-86 139t-28 178.5v177q0 67 39.5 124t86 110t86 105t39.5 113v49q0 28 -14.5 45t-46.5 17q-65 0 -91 -81z" />
<glyph unicode="&#xe0c;" horiz-adv-x="2126" d="M115 935q21 71 70 141t120.5 123t162 85t194.5 32q126 0 219 -36.5t154.5 -103.5t92.5 -159t31 -200v-410q26 -58 65 -107.5t88 -87.5t103 -60t111 -22q134 0 190.5 90t56.5 250v826h175v-797q0 -119 -21.5 -215t-70.5 -164.5t-125.5 -104t-182.5 -35.5q-128 0 -224 58.5 t-162 162.5l-14 -201h-165v817q0 172 -80.5 260.5t-240.5 88.5q-123 0 -221.5 -61t-139.5 -158q46 -44 92.5 -86t94.5 -86q-132 -60 -132 -208v-357q0 -64 61 -64h124v-146h-168q-91 0 -141.5 54t-50.5 143v344q0 75 33 137t96 93q-49 39 -97.5 81t-97.5 83z" />
<glyph unicode="&#xe0d;" horiz-adv-x="2126" d="M115 935q21 71 70 141t120.5 123t162 85t194.5 32q126 0 218 -36.5t154.5 -103.5t92.5 -159t30 -200v-384q0 -130 59 -206.5t191 -76.5q130 0 220.5 73t140.5 170v903h176v-1150q0 -135 -36 -232t-102 -159t-158.5 -91.5t-203.5 -29.5q-132 0 -240.5 30.5t-174.5 72.5 l45 135q66 -39 155.5 -61.5t184.5 -22.5q83 0 148 14.5t111.5 54t70.5 110t24 181.5v77q-20 -42 -56 -82.5t-84.5 -71.5t-111.5 -51t-136 -20q-86 0 -159 25.5t-126 78.5t-83.5 135.5t-30.5 193.5v384q0 172 -79.5 260.5t-239.5 88.5q-123 0 -221.5 -61t-139.5 -158 l187 -172q-132 -60 -132 -208v-357q0 -64 61 -64h124v-146h-168q-91 0 -141.5 54t-50.5 143v344q0 67 33 132t96 98z" />
<glyph unicode="&#xe0e;" horiz-adv-x="1409" d="M75 0v146h95q32 0 44.5 16.5t12.5 45.5v322q0 71 34.5 134t94.5 93l-222 173q21 71 72 142.5t126 124.5t171 86t206 33q129 0 226 -36.5t163 -103.5t100 -159t34 -200v-1280h-216q-60 53 -138.5 92.5t-183.5 39.5q-113 0 -191.5 -34.5t-153.5 -95.5q-11 33 -22.5 68 t-23.5 69q64 60 155.5 101.5t217.5 41.5q110 0 215 -47.5t164 -111.5v1157q0 172 -89 260.5t-257 88.5q-139 0 -244 -63t-143 -158l215 -183q-135 -58 -135 -209v-359q0 -90 -52 -142t-140 -52h-135z" />
<glyph unicode="&#xe0f;" horiz-adv-x="1409" d="M75 0v146h95q32 0 44.5 16.5t12.5 45.5v322q0 71 34.5 134t94.5 93q-55 44 -109.5 86.5t-112.5 86.5q21 71 72 142.5t126 124.5t171 86t206 33q129 0 226 -36.5t163 -103.5t100 -159t34 -200v-1280h-170l-285 171q-37 -85 -116.5 -135t-167.5 -50q-86 0 -162.5 21 t-122.5 54q11 37 23 73.5t23 74.5q47 -33 110.5 -57.5t116.5 -24.5q98 0 167.5 66.5t89.5 165.5l317 -190v1111q0 172 -89 260.5t-257 88.5q-139 0 -244 -63t-143 -158l164 -133l51 -50q-135 -58 -135 -209v-359q0 -90 -52 -142t-140 -52h-135z" />
<glyph unicode="&#xe10;" horiz-adv-x="1244" d="M42 1141q92 75 223 125t276 50q172 0 301 -71l123 142h199l-197 -234q82 -84 122 -201t40 -260q0 -153 -41.5 -279t-116.5 -218.5t-179.5 -143.5t-228.5 -51h-146l-130 534q-11 54 -62 54h-88v150h101q93 0 143 -35.5t70 -132.5l97 -420h33q71 0 138 36.5t119 104t84 170 t32 233.5q0 238 -106 355t-304 117q-137 0 -250 -46t-197 -115zM157 -310h165q75 0 130 34.5t96 87.5q44 -53 92.5 -87.5t127.5 -34.5h122v136h165v-289h-278q-79 0 -135.5 32.5t-93.5 81.5q-33 -51 -96 -82.5t-145 -31.5h-150v153z" />
<glyph unicode="&#xe11;" horiz-adv-x="1402" d="M97 1162v154q35 -22 70.5 -43t70.5 -41q23 37 65 56t90 19q75 0 117.5 -49.5t45.5 -116.5q51 69 134 122t198 53q71 0 133 -23t106 -72.5t69.5 -127t25.5 -183.5v-910h-176v907q0 151 -43 205t-122 54q-92 0 -186 -63t-169 -159t-122.5 -212t-47.5 -220v-512h-173v507 q0 86 22 160.5t55.5 138.5t73 116t75.5 94v79q0 26 -13.5 44t-46.5 18q-30 0 -54 -22t-36 -59z" />
<glyph unicode="&#xe12;" horiz-adv-x="2274" d="M118 645q0 139 35 254t96 202t145.5 141t186.5 74l185 -143l190 143q148 -30 227.5 -133t79.5 -271v-505q26 -56 66.5 -106.5t90 -88.5t109 -60t119.5 -22q145 0 209 91t64 260v815h175v-817q0 -236 -104 -367.5t-323 -131.5q-137 0 -236.5 58.5t-169.5 164.5l-11 -203 h-164v923q0 97 -36 152.5t-101 79.5l-185 -123l-176 121q-62 -14 -116.5 -53.5t-94 -103.5t-62.5 -151.5t-23 -197.5q0 -139 28.5 -235.5t77.5 -158t111.5 -89t129.5 -27.5q48 0 85.5 6.5t74.5 22.5l32 -138q-40 -18 -92 -30t-109 -12q-109 0 -202.5 38t-163 119.5t-109 205 t-39.5 296.5z" />
<glyph unicode="&#xe13;" horiz-adv-x="2126" d="M115 935q21 71 70 141t120.5 123t162 85t194.5 32q126 0 218 -36.5t154.5 -103.5t92.5 -159t30 -200v-410q0 -128 54.5 -202.5t170.5 -74.5q64 0 122 22t109 60t90 87.5t65 107.5v889h176v-1296h-164l-14 201q-66 -104 -163 -162.5t-231 -58.5q-199 0 -295 114t-96 311 v412q0 172 -79.5 260.5t-239.5 88.5q-123 0 -221.5 -61t-139.5 -158l187 -172q-132 -60 -132 -208v-357q0 -64 61 -64h124v-146h-168q-91 0 -141.5 54t-50.5 143v344q0 75 33 137t96 93z" />
<glyph unicode="&#xe14;" horiz-adv-x="1433" d="M115 632q0 143 41 268t119.5 217.5t191 145.5t257.5 53q137 0 237.5 -42t166.5 -116.5t97.5 -173t31.5 -209.5v-775h-177v777q0 84 -20 156t-64.5 124t-110.5 80.5t-156 28.5q-109 0 -191.5 -38t-136.5 -108.5t-81.5 -168.5t-27.5 -219q0 -137 32 -231t83.5 -152.5 t114.5 -85t125 -26.5q49 0 85 6.5t71 20.5l32 -138q-39 -18 -89 -29t-108 -11q-101 0 -195 38t-167 118.5t-117 202t-44 287.5z" />
<glyph unicode="&#xe15;" horiz-adv-x="1464" d="M115 638q0 142 35 257.5t97.5 202.5t148 142.5t187.5 75.5q49 -37 97.5 -72.5t96.5 -70.5q51 35 99.5 71t99.5 72q146 -32 227.5 -134t81.5 -270v-912h-176v923q0 95 -36 150.5t-103 79.5l-193 -124q-46 33 -92.5 62t-92.5 59q-62 -13 -117.5 -52.5t-96 -103.5 t-65 -152.5t-24.5 -203.5q0 -136 31 -231t81 -155t114 -87.5t130 -27.5q49 0 85 6.5t73 22.5q9 -35 17 -69.5t15 -68.5q-39 -18 -90 -30t-111 -12q-106 0 -201 38t-165.5 118.5t-111.5 203t-41 292.5z" />
<glyph unicode="&#xe16;" horiz-adv-x="1394" d="M115 935q21 71 72 141t126.5 123t170.5 85t203 32q130 0 228.5 -36.5t165.5 -103.5t100.5 -159t33.5 -200v-817h-175v817q0 172 -90.5 260.5t-262.5 88.5q-137 0 -241 -61t-145 -158q46 -44 92.5 -86t94.5 -86q-132 -60 -132 -208v-357q0 -64 61 -64h124v-146h-168 q-91 0 -141.5 54t-50.5 143v344q0 75 33 137t96 93q-49 39 -97.5 81t-97.5 83z" />
<glyph unicode="&#xe17;" horiz-adv-x="1415" d="M183 0v1296h164l11 -203q40 44 89.5 84t109 71.5t126.5 49.5t143 18q203 0 307.5 -126t104.5 -350v-840h-176v840q0 169 -63.5 247.5t-181.5 78.5q-75 0 -142.5 -22t-127 -60t-108 -87.5t-81.5 -106.5v-890h-175z" />
<glyph unicode="&#xe18;" horiz-adv-x="1276" d="M111 985q0 148 131 242t378 94q142 0 261 -27.5t214 -74.5l-35 -141q-88 46 -199 71.5t-236 25.5q-181 0 -263 -53t-82 -137q0 -74 40 -107t108 -45l440 -65q146 -20 217.5 -93.5t71.5 -206.5v-114q0 -111 -29 -184t-91.5 -114.5t-161 -58.5t-237.5 -17t-237 19 t-160 65.5t-91.5 122.5t-29.5 188v135h169v-135q0 -74 19 -123t60 -76.5t107 -39t163 -11.5q100 0 167 9.5t108 33.5t58 69t17 117v116q0 69 -36 103t-102 45l-438 60q-139 18 -220 92.5t-81 214.5z" />
<glyph unicode="&#xe19;" horiz-adv-x="1392" d="M179 455v841h175v-837q0 -166 65 -247.5t217 -81.5q62 0 122.5 22t113.5 60t95 88.5t67 106.5v889h176v-1296h-164l-12 203q-69 -104 -176.5 -163.5t-260.5 -59.5q-211 0 -314.5 120t-103.5 355z" />
<glyph unicode="&#xe1a;" horiz-adv-x="1387" d="M179 472v824h175v-824q0 -159 83 -250.5t257 -91.5t257 91t83 251v824h176v-824q0 -238 -130.5 -365t-385.5 -127q-254 0 -384.5 127t-130.5 365z" />
<glyph unicode="&#xe1b;" horiz-adv-x="1387" d="M179 472v824h175v-824q0 -159 83 -250.5t257 -91.5t257 91t83 251v1264h176v-1264q0 -238 -130.5 -365t-385.5 -127q-254 0 -384.5 127t-130.5 365z" />
<glyph unicode="&#xe1c;" horiz-adv-x="1515" d="M183 0v1099q0 89 52 144t142 53h144v-150h-102q-64 0 -65 -66v-536q0 -95 -4.5 -178.5t-16.5 -168.5h5q18 60 41 129.5t56 126.5l257 479h141l250 -481q30 -58 52 -120t42 -134h3q-12 85 -15 168.5t-3 178.5v752h171v-1296h-189l-311 614q-26 53 -44 105t-25 78h-5 q-4 -26 -22.5 -78t-47.5 -105l-316 -614h-190z" />
<glyph unicode="&#xe1d;" horiz-adv-x="1515" d="M183 0v1099q0 89 52 144t142 53h144v-150h-102q-64 0 -65 -66v-536q0 -95 -4.5 -178.5t-16.5 -168.5h5q18 60 41 129.5t56 126.5l257 479h141l250 -481q30 -58 52 -120t42 -134h3q-12 85 -15 168.5t-3 178.5v1192h171v-1736h-189l-311 614q-26 53 -44 105t-25 78h-5 q-4 -26 -22.5 -78t-47.5 -105l-316 -614h-190z" />
<glyph unicode="&#xe1e;" horiz-adv-x="1619" d="M88 1296h179l122 -775q11 -67 20.5 -145t14.5 -193h4q16 113 34.5 191.5t39.5 144.5l234 713h148l234 -713q20 -65 38.5 -144t35.5 -192h5q4 115 13 192.5t22 145.5l122 775h178l-213 -1296h-195l-254 759q-20 60 -35.5 143t-22.5 151h-4q-7 -67 -22 -150.5t-36 -143.5 l-255 -759h-194q-54 327 -107 648.5t-106 647.5z" />
<glyph unicode="&#xe1f;" horiz-adv-x="1619" d="M88 1296h179l122 -775q11 -67 20.5 -145t14.5 -193h4q16 113 37 191.5t42 144.5l233 713h148l239 -713q20 -65 39 -144t35 -192h5q4 115 13 192.5t22 145.5l124 1215h179l-215 -1736h-194l-260 759q-21 60 -36 143t-22 151h-5q-6 -67 -21.5 -150.5t-35.5 -143.5 l-260 -759h-194q-54 327 -107 648.5t-106 647.5z" />
<glyph unicode="&#xe20;" horiz-adv-x="1409" d="M75 0v146h95q32 0 44.5 16.5t12.5 45.5v322q0 71 34.5 134t94.5 93l-222 173q21 71 72 142.5t126 124.5t171 86t206 33q129 0 226 -36.5t163 -103.5t100 -159t34 -200v-817h-177v817q0 172 -89 260.5t-257 88.5q-139 0 -244 -63t-143 -158l215 -183q-135 -58 -135 -209 v-359q0 -90 -52 -142t-140 -52h-135z" />
<glyph unicode="&#xe21;" horiz-adv-x="1392" d="M183 0v1296h175v-889q26 -56 67 -106.5t93 -88.5t113 -60t124 -22q152 0 218.5 91t66.5 260v815h175v-817q0 -236 -107.5 -367.5t-332.5 -131.5q-139 0 -243 58.5t-174 164.5l-11 -203h-164z" />
<glyph unicode="&#xe22;" horiz-adv-x="1334" d="M111 391q0 117 58 202t162 120q-97 26 -158.5 99.5t-61.5 198.5q0 128 84.5 213.5t237.5 85.5q62 0 113 -11.5t86 -28.5q-5 -37 -10.5 -72.5t-10.5 -73.5q-22 12 -64.5 23.5t-85.5 11.5q-90 0 -135.5 -47.5t-45.5 -120.5q0 -46 21 -83.5t53 -61.5t73 -36.5t80 -12.5h187 q4 -40 8 -77t7 -77h-172q-109 0 -182 -66.5t-73 -176.5q0 -69 29 -120t76.5 -84.5t110 -49.5t129.5 -16q181 0 267.5 88.5t86.5 258.5v819h176v-821q0 -113 -30 -204.5t-95 -156.5t-165.5 -99.5t-241.5 -34.5q-239 0 -376.5 105t-137.5 306z" />
<glyph unicode="&#xe23;" horiz-adv-x="1133" d="M108 979q0 159 126 248t345 89q110 0 214.5 -23t180.5 -61l-44 -137q-69 35 -152.5 54t-180.5 19q-155 0 -236 -53t-81 -136q0 -49 24.5 -83.5t64.5 -61t93.5 -46.5t113.5 -38q97 -30 180.5 -65t142.5 -82t92.5 -112t33.5 -153q0 -164 -119.5 -261t-371.5 -97 q-129 0 -237.5 24t-183.5 67l44 137q67 -37 164.5 -58.5t203.5 -21.5q162 0 245.5 62t83.5 152q0 56 -30.5 95.5t-79 69.5t-109.5 52t-123 40q-84 23 -157 53.5t-128 74.5t-87 103.5t-32 148.5z" />
<glyph unicode="&#xe24;" horiz-adv-x="1394" d="M115 935q21 71 72 141t126.5 123t170.5 85t203 32q130 0 228.5 -36.5t165.5 -103.5t100.5 -159t33.5 -200v-1280h-175v1280q0 172 -90.5 260.5t-262.5 88.5q-137 0 -241 -61t-145 -158q46 -44 92.5 -86t94.5 -86q-132 -60 -132 -208v-357q0 -64 61 -64h124v-146h-168 q-91 0 -141.5 54t-50.5 143v344q0 75 33 137t96 93q-49 39 -97.5 81t-97.5 83z" />
<glyph unicode="&#xe25;" horiz-adv-x="1323" d="M88 360q0 204 141.5 316.5t430.5 112.5h310v42q0 161 -75.5 250.5t-258.5 89.5q-134 0 -246 -39t-196 -98l-57 125q37 29 90 56.5t119 50.5t142.5 36.5t158.5 13.5q243 0 371 -129t128 -354v-833h-176v638h-329q-177 0 -278.5 -64t-101.5 -210q0 -123 75.5 -181 t179.5 -58q54 0 105.5 10.5t91.5 28.5l29 -144q-46 -18 -110.5 -29t-132.5 -11q-88 0 -163 23t-130.5 70t-86.5 118.5t-31 168.5z" />
<glyph unicode="&#xe26;" horiz-adv-x="1409" d="M75 0v146h95q32 0 44.5 16.5t12.5 45.5v322q0 71 34.5 134t94.5 93l-222 173q21 71 72 142.5t126 124.5t171 86t206 33q129 0 226 -36.5t163 -103.5t100 -159t34 -200v-1280h-177v1280q0 172 -89 260.5t-257 88.5q-139 0 -244 -63t-143 -158l215 -183q-135 -58 -135 -209 v-359q0 -90 -52 -142t-140 -52h-135z" />
<glyph unicode="&#xe27;" horiz-adv-x="1197" d="M84 1190q86 53 200 89.5t237 36.5q276 0 419 -174.5t143 -486.5q0 -333 -149.5 -504t-426.5 -171q-132 0 -233.5 31t-185.5 86l42 144q79 -49 173.5 -80t206.5 -31q183 0 290 125t107 388q0 267 -101.5 395t-295.5 128q-120 0 -212 -32t-173 -85z" />
<glyph unicode="&#xe28;" horiz-adv-x="1427" d="M179 0v822q0 103 34 193.5t102.5 158t168 105t229.5 37.5q84 0 154 -16.5t131 -49.5l115 137h201l-194 -228q62 -66 96 -153t34 -184v-822h-176v824q0 152 -90 247t-271 95t-270 -95t-89 -247v-294q32 71 101.5 121.5t171.5 50.5h159v-156h-159q-99 0 -170 -56.5 t-103 -165.5v-324h-175z" />
<glyph unicode="&#xe29;" horiz-adv-x="1420" d="M179 472v824h175v-824q0 -159 83 -250.5t257 -91.5t257 91t83 251v217h-307v151h307v456h176v-456h192l-39 -151h-153v-217q0 -238 -130.5 -365t-385.5 -127q-254 0 -384.5 127t-130.5 365z" />
<glyph unicode="&#xe2a;" horiz-adv-x="1323" d="M88 360q0 204 141.5 316.5t430.5 112.5h310v42q0 154 -75.5 247t-253.5 93q-139 0 -251 -39t-196 -98l-57 125q37 29 92.5 57.5t121.5 50.5t140 35.5t150 13.5q79 0 145 -14.5t119 -40.5l109 126h201l-186 -219q116 -127 117 -335v-833h-176v638h-329q-177 0 -278.5 -64 t-101.5 -210q0 -123 75.5 -181t179.5 -58q54 0 105.5 10.5t91.5 28.5l29 -144q-46 -18 -110.5 -29t-132.5 -11q-88 0 -163 23t-130.5 70t-86.5 118.5t-31 168.5z" />
<glyph unicode="&#xe2b;" horiz-adv-x="1336" d="M183 0v1296h175v-532l642 532h238l-452 -375q126 -18 196.5 -101.5t110.5 -214.5l175 -605h-185l-169 588q-66 222 -254 229l-302 -247v-570h-175z" />
<glyph unicode="&#xe2c;" horiz-adv-x="1515" d="M183 0v1296h171v-752q0 -95 -3.5 -178.5t-14.5 -168.5h2q20 71 42 133.5t53 120.5l250 481h141l256 -479q33 -57 56 -126.5t41 -129.5h6q-11 85 -16 168.5t-5 178.5v461q0 119 -42 168t-148 49h-35l-25 74l300 440h184l-306 -424q126 -14 184.5 -99.5t58.5 -205.5v-1007 h-189l-318 614q-28 53 -46 105t-23 78h-4q-7 -26 -25.5 -78t-44.5 -105l-310 -614h-190z" />
<glyph unicode="&#xe2d;" horiz-adv-x="1355" d="M120 440v72q0 113 61.5 169.5t167.5 56.5h207v-150h-188q-32 0 -53 -22t-21 -62v-64q0 -310 359 -310q197 0 303 123.5t106 396.5q0 252 -108.5 384t-306.5 132q-145 0 -260.5 -43t-201.5 -107l-57 130q39 33 94.5 62.5t122.5 54t144.5 39t160.5 14.5q287 0 437.5 -180 t150.5 -495q0 -325 -146.5 -493t-436.5 -168q-271 0 -403 119t-132 341z" />
<glyph unicode="&#xe2e;" horiz-adv-x="1355" d="M120 440v72q0 113 61.5 169.5t167.5 56.5h207v-150h-188q-32 0 -53 -22t-21 -62v-64q0 -310 359 -310q197 0 303 123.5t106 396.5q0 252 -108.5 384t-306.5 132q-145 0 -260.5 -43t-201.5 -107l-57 130q39 33 94.5 62.5t122.5 54t144.5 39t160.5 14.5q77 0 143 -14.5 t123 -40.5l109 126h201l-180 -214q95 -88 143.5 -223t48.5 -309q0 -325 -146.5 -493t-436.5 -168q-271 0 -403 119t-132 341z" />
<glyph unicode="&#xe2f;" horiz-adv-x="1239" d="M88 1208v88h169v-90q0 -160 59 -239t188 -79q71 0 142.5 33t125.5 85t88 117t34 131v42h164v-1296h-177v976q-22 -48 -64 -89.5t-96 -72t-118 -47.5t-133 -17q-104 0 -177 33.5t-118 94.5t-66 144.5t-21 185.5z" />
<glyph unicode="&#xe30;" horiz-adv-x="684" d="M104 384v104h167v-86q0 -28 12.5 -40.5t45.5 -12.5h241v-143h-265q-93 0 -147 40.5t-54 137.5zM104 1037v102h167v-84q0 -30 12.5 -42.5t45.5 -12.5h241v-143h-265q-93 0 -147 41t-54 139z" />
<glyph unicode="&#xe31;" d="M-655 1674v90h167v-70q0 -75 73 -74h554v-143h-574q-220 0 -220 197z" />
<glyph unicode="&#xe32;" horiz-adv-x="1080" d="M23 1164q35 28 82.5 56t104.5 48.5t120 34t125 13.5q225 0 336.5 -124.5t111.5 -351.5v-840h-176v840q0 166 -71 246t-212 80q-111 0 -209 -40t-166 -94z" />
<glyph unicode="&#xe33;" horiz-adv-x="1080" d="M-488 1659q0 46 17.5 87t46 70.5t67.5 47t86 17.5q92 0 157 -63.5t65 -158.5t-65 -157t-157 -62q-47 0 -86 16t-67.5 46t-46 70.5t-17.5 86.5zM-371 1661q0 -46 30 -76t70 -30q44 0 74.5 30.5t30.5 75.5q0 46 -30.5 75.5t-74.5 29.5q-40 0 -70 -29.5t-30 -75.5zM23 1164 q35 28 82.5 56t104.5 48.5t120 34t125 13.5q225 0 336.5 -124.5t111.5 -351.5v-840h-176v840q0 166 -71 246t-212 80q-111 0 -209 -40t-166 -94z" />
<glyph unicode="&#xe34;" d="M-1162 1477v143h983v-143h-983z" />
<glyph unicode="&#xe35;" d="M-1162 1477v143h817v217h166v-360h-983z" />
<glyph unicode="&#xe36;" d="M-1159 1477v143h652q-12 23 -12 51q0 84 57 141.5t138 57.5t138.5 -58t57.5 -141q0 -42 -14.5 -78t-41 -61.5t-62.5 -40t-78 -14.5h-835zM-405 1674q0 -36 24 -60t57 -24q35 0 58 24t23 60q0 37 -23 59.5t-58 22.5q-33 0 -57 -23t-24 -59z" />
<glyph unicode="&#xe37;" d="M-1162 1477v143h570v217h146v-221h119v221h148v-360h-983z" />
<glyph unicode="&#xe38;" d="M-486 -166h132q91 0 133 -43t42 -142v-237h-170v224q0 51 -51 52h-86v146z" />
<glyph unicode="&#xe39;" d="M-870 -164h285v-169q0 -86 25.5 -119.5t93.5 -33.5q69 0 95 33.5t26 119.5v169h166v-213q0 -113 -72.5 -175t-214.5 -62q-141 0 -212.5 62t-71.5 175v70h-120v143z" />
<glyph unicode="&#xe3a;" d="M-412 -285q0 56 41.5 97.5t97.5 41.5q59 0 100 -41.5t41 -97.5q0 -53 -40 -93.5t-101 -40.5q-56 0 -97.5 40.5t-41.5 93.5z" />
<glyph unicode="&#xe3f;" horiz-adv-x="1309" d="M179 0v1504h453v232h118v-234q204 -16 309 -120.5t105 -272.5q0 -67 -22 -120.5t-56.5 -92.5t-77.5 -66t-85 -41q56 -9 111.5 -34.5t98 -68.5t69 -105t26.5 -146q0 -185 -117.5 -302t-360.5 -131v-234h-118v232h-453zM347 153h285v549h-285v-549zM347 854h285v497h-285 v-497zM750 155q151 11 230.5 83t79.5 197q0 137 -85 194.5t-225 68.5v-543zM750 857q104 15 175 78t71 180q0 107 -66.5 164t-179.5 68v-490z" />
<glyph unicode="&#xe40;" horiz-adv-x="545" d="M185 0v1296h175v-1296h-175z" />
<glyph unicode="&#xe41;" horiz-adv-x="994" d="M185 0v1296h171v-1296h-171zM638 0v1296h172v-1296h-172z" />
<glyph unicode="&#xe42;" horiz-adv-x="616" d="M-18 1902q74 130 216 196t314 66q69 0 122 -4.5t97 -14t81.5 -20t68.5 -23.5l-29 -154q-64 35 -151 51.5t-173 16.5q-113 0 -206 -30t-143 -91q119 -67 180.5 -199t61.5 -291v-1405h-176v1424q0 104 -32 182.5t-75 131.5t-86 83t-66 42z" />
<glyph unicode="&#xe43;" horiz-adv-x="616" d="M-77 1974q58 79 172.5 134.5t244.5 55.5q91 0 159 -25.5t114.5 -69.5t71 -104t24.5 -128q0 -88 -45.5 -159.5t-98.5 -142.5t-98.5 -148t-45.5 -177v-1210h-176v1254q0 97 44 174.5t96 145t96 131t44 132.5q0 75 -46 124.5t-150 49.5q-88 0 -181 -39.5t-168 -120.5z" />
<glyph unicode="&#xe44;" horiz-adv-x="616" d="M-137 1985v146h792v-124q-110 -53 -172 -156.5t-62 -249.5v-1601h-176v1557q0 139 48.5 248t139.5 180h-570z" />
<glyph unicode="&#xe45;" horiz-adv-x="1080" d="M23 1164q35 28 82.5 56t104.5 48.5t120 34t125 13.5q225 0 336.5 -124.5t111.5 -351.5v-1303h-176v1303q0 166 -71 246t-212 80q-111 0 -209 -40t-166 -94z" />
<glyph unicode="&#xe46;" horiz-adv-x="1285" d="M115 1016q0 64 25.5 116.5t69.5 91.5t101 63.5t117 33.5l183 -141l188 141q152 -11 228.5 -115t76.5 -255v-1414h-176v1428q0 88 -31 142.5t-91 65.5l-192 -136l-197 136q-67 -11 -107.5 -53t-40.5 -104q0 -77 42.5 -117t116.5 -40q18 0 35.5 2t35.5 7l22 -132 q-26 -9 -56 -12.5t-56 -3.5q-55 0 -107 16.5t-94 52t-67.5 92t-25.5 135.5z" />
<glyph unicode="&#xe47;" d="M-1009 1701q0 46 16.5 91t49.5 80t84 55.5t123 20.5h477v-133h-470q-62 0 -90.5 -35t-28.5 -82q0 -44 28.5 -72.5t79.5 -28.5q44 0 71.5 28.5t36.5 63.5h104q18 -69 111 -69h158v-143h-148q-55 0 -102 29t-67 79q-16 -50 -64.5 -84t-125.5 -34q-58 0 -103 19.5t-76 52.5 t-47.5 74t-16.5 88z" />
<glyph unicode="&#xe48;" d="M-342 1954v303h163v-303h-163z" />
<glyph unicode="&#xe49;" d="M-616 2150v138h188q60 0 85 -31t25 -93v-40q0 -32 33 -32h308v-138h-391q-51 0 -75.5 31t-24.5 84v42q0 18 -5.5 28.5t-28.5 10.5h-114z" />
<glyph unicode="&#xe4a;" d="M-762 2067q0 66 49 124.5t143 69.5l115 -97l106 99q86 -4 128 -50.5t42 -120.5v-22t-2 -22q47 20 64.5 63.5t17.5 103.5q0 53 -24 99h160q5 -18 11.5 -40t6.5 -61q0 -47 -17.5 -93t-52 -83.5t-84 -60t-113.5 -22.5h-84l-14 34q21 26 21 60q0 32 -19 52t-43 24l-108 -79 l-104 75q-22 -2 -36.5 -24t-14.5 -48q0 -21 4.5 -44t19.5 -56h-152q-12 31 -16 62t-4 57z" />
<glyph unicode="&#xe4b;" d="M-497 2096v123l166 -4l-5 148h153l-5 -148l168 4v-123l-168 6l5 -148h-153l5 148z" />
<glyph unicode="&#xe4c;" d="M-484 1752v72q0 92 56.5 147.5t168.5 55.5h210v-143h-174q-90 0 -89 -84v-48h-172z" />
<glyph unicode="&#xe4d;" d="M-488 1659q0 46 17.5 87t46 70.5t67.5 47t86 17.5q92 0 157 -63.5t65 -158.5t-65 -157t-157 -62q-47 0 -86 16t-67.5 46t-46 70.5t-17.5 86.5zM-371 1661q0 -46 30 -76t70 -30q44 0 74.5 30.5t30.5 75.5q0 46 -30.5 75.5t-74.5 29.5q-40 0 -70 -29.5t-30 -75.5z" />
<glyph unicode="&#xe4e;" d="M-713 1667q0 42 14 77.5t44 61t76.5 36.5t108.5 4q-33 38 -32 84q0 44 39 78.5t121 34.5h130l29 -115h-127q-26 0 -40 -15.5t-14 -33.5q0 -44 59 -72l-33 -85q-33 9 -64 13.5t-66 4.5q-97 0 -97 -73q0 -35 27.5 -56t78.5 -21q26 0 51.5 2t56.5 14v-102q-29 -16 -59 -22.5 t-71 -6.5q-44 0 -86 11t-74 34.5t-52 59.5t-20 87z" />
<glyph unicode="&#xe4f;" horiz-adv-x="1263" d="M139 556q0 102 38 191.5t105 157t157.5 106t192.5 38.5q101 0 191.5 -38.5t158 -106t105 -157t37.5 -191.5t-37.5 -192.5t-105 -157.5t-158 -106.5t-191.5 -39.5q-102 0 -192.5 39.5t-157.5 106.5t-105 157t-38 193zM210 556q0 -88 34 -164.5t90.5 -134.5t133 -90.5 t164.5 -32.5t164 32.5t134 90.5t90.5 134.5t32.5 164.5q0 86 -32.5 163.5t-90.5 134t-134 89.5t-164 33t-164.5 -33t-133 -89.5t-90.5 -134.5t-34 -163zM349 553q0 59 22 110.5t60.5 89.5t89.5 60t108 22q58 0 110 -22t90.5 -60t60.5 -88.5t22 -108.5q0 -60 -22 -111.5 t-60.5 -88t-89.5 -58.5t-108 -22q-60 0 -111 22t-89.5 60t-60.5 87.5t-22 107.5zM461 553q0 -67 49.5 -118t121.5 -51q69 0 118 48.5t49 123.5q0 67 -48.5 116.5t-121.5 49.5q-66 0 -117 -49.5t-51 -119.5z" />
<glyph unicode="&#xe50;" horiz-adv-x="1468" d="M115 560q0 135 48.5 242.5t133.5 181.5t197 114.5t242 40.5q127 0 239.5 -40.5t197 -114.5t133 -182t48.5 -242t-48.5 -242t-133 -183t-198 -115t-241.5 -40q-127 0 -239 40t-197 115t-133.5 183t-48.5 242zM285 560q0 -101 35.5 -182.5t96 -137t142.5 -85.5t174 -30 q93 0 176.5 30t143.5 85.5t96 137t36 182.5q0 102 -36 182t-96 135t-143.5 85.5t-176.5 30.5q-92 0 -174 -30.5t-142.5 -85.5t-96 -135t-35.5 -182z" />
<glyph unicode="&#xe51;" horiz-adv-x="1480" d="M108 576q0 123 45.5 226t126 178t194.5 117t250 42q151 0 270 -51t201 -141t126 -215t44 -273q0 -164 -54 -297.5t-148 -227t-217.5 -144.5t-265.5 -51h-73l16 141h71q90 0 179.5 35.5t160 106.5t115.5 178t45 253q0 120 -32.5 220t-92.5 170.5t-148 110t-201 39.5 q-100 0 -182.5 -31.5t-141 -88t-92 -133t-33.5 -166.5q0 -84 24.5 -150t68 -109.5t101.5 -66.5t127 -23q49 0 99.5 11t90.5 27q2 -32 5.5 -68t5.5 -67q-46 -26 -97 -37.5t-106 -11.5q-97 0 -184.5 32.5t-154 95t-105 154.5t-38.5 215z" />
<glyph unicode="&#xe52;" horiz-adv-x="1723" d="M174 442v854h171v-854q0 -153 75 -224.5t200 -71.5h489q125 0 201.5 71.5t76.5 224.5v294q0 123 -41 179.5t-124 65.5l-195 -153l-208 155q-66 -11 -101 -70t-35 -124q0 -88 57 -142.5t137 -79.5l-46 -130q-139 26 -222.5 116t-83.5 231q0 153 82 243.5t219 111.5 l201 -169l183 169q183 -18 264 -121.5t81 -288.5v-287q0 -97 -27.5 -178t-83 -140.5t-137 -91.5t-187.5 -32h-511q-106 0 -187.5 32t-137 91.5t-83 140.5t-27.5 178z" />
<glyph unicode="&#xe53;" horiz-adv-x="1522" d="M134 556q0 128 24.5 234t72 183.5t119 121.5t166.5 44q109 0 169 -46.5t88 -120.5q35 74 97 120.5t170 46.5q81 0 141 -28t97.5 -79t56.5 -119t19 -147v-766h-169v768q0 42 -5 81t-20.5 70.5t-46 51.5t-81.5 20q-97 0 -139.5 -61.5t-42.5 -165.5v-340h-156v340 q0 104 -34.5 165.5t-125.5 61.5q-62 0 -106 -33t-71.5 -90.5t-40.5 -137.5t-13 -172q0 -205 62.5 -320t166.5 -115q60 0 113 23l35 -118q-62 -42 -155 -42q-88 0 -160.5 40.5t-123.5 116t-79 179.5t-28 234z" />
<glyph unicode="&#xe54;" horiz-adv-x="1400" d="M115 548q0 139 47.5 246t130 178.5t194.5 108.5t244 37h252q120 0 161 40.5t41 107.5v30h169v-30q0 -144 -85.5 -219t-259.5 -75h-276q-99 0 -181 -24.5t-141.5 -76.5t-92.5 -130.5t-33 -187.5q0 -100 26.5 -179.5t71.5 -135t106 -85.5t131 -30q72 0 118 20.5t81 59.5 q-26 40 -39.5 87.5t-13.5 100.5q0 139 82 215.5t203 76.5h152l-30 -142h-90q-67 0 -110 -46t-43 -124q0 -111 72 -170.5t206 -59.5h123l-30 -141h-113q-109 0 -179 22t-128 82q-41 -53 -108 -88.5t-190 -35.5q-102 0 -187.5 39t-148 113t-97.5 179.5t-35 236.5z" />
<glyph unicode="&#xe55;" horiz-adv-x="1400" d="M113 548q0 208 99.5 340t264.5 188q-28 44 -28 104q0 42 15 80t42.5 67t66 46.5t82.5 17.5t82 -16.5t66 -45t44 -67t16 -82.5q0 -33 -11 -62h129q120 0 161 40.5t41 107.5v30h168v-30q0 -146 -85.5 -221t-256.5 -75h-278q-99 0 -181 -24.5t-141.5 -76.5t-93 -130.5 t-33.5 -185.5q0 -100 27 -179.5t73 -136t106 -87t130 -30.5q71 0 117.5 22t83.5 59q-53 79 -53 190q0 139 82 215.5t203 76.5h152l-32 -142h-88q-67 0 -111 -47.5t-44 -122.5q0 -113 71.5 -171.5t208.5 -58.5h123l-30 -141h-113q-109 0 -180 21t-127 81 q-44 -53 -110.5 -87.5t-187.5 -34.5q-102 0 -187.5 39t-148 113t-98.5 179.5t-36 236.5zM567 1183q0 -39 25.5 -66t62.5 -27q40 0 65 27t25 66q0 40 -25.5 66t-64.5 26q-37 0 -62.5 -26.5t-25.5 -65.5z" />
<glyph unicode="&#xe56;" horiz-adv-x="1418" d="M31 1316h168l121 -367q71 86 180 138t245 52q117 0 220.5 -42t177.5 -118t117 -181.5t43 -230.5q0 -117 -34.5 -224t-108.5 -187.5t-190 -128t-278 -47.5q-126 0 -223.5 31t-166 86.5t-104.5 132.5t-36 168q0 69 26.5 130.5t63.5 98.5l128 -93q-26 -26 -41 -68t-15 -80 q0 -48 23.5 -95.5t69.5 -83t114 -59t158 -23.5q113 0 197 33.5t139 92.5t82.5 141.5t27.5 179.5q0 92 -29.5 171t-81.5 135.5t-126 88t-165 31.5q-148 0 -237 -55t-149 -140h-139z" />
<glyph unicode="&#xe57;" horiz-adv-x="1853" d="M134 556q0 128 25.5 234t74 183.5t118 121.5t160.5 44q97 0 145.5 -42t69.5 -116q32 74 93 116t159 42q64 0 114.5 -28t82.5 -79t49.5 -119t17.5 -147v-632h58q95 0 152.5 61.5t57.5 184.5v916h169v-891q0 -181 -95 -293t-287 -112h-222v768q0 42 -3.5 81t-17 70.5 t-40.5 51.5t-73 20q-66 0 -104.5 -50.5t-38.5 -125.5v-121h-149v121q0 74 -25.5 125t-99.5 51q-59 0 -101 -33t-68.5 -90.5t-39.5 -137.5t-13 -172q0 -205 66 -320t163 -115q62 0 113 23l35 -118q-33 -22 -70.5 -32t-84.5 -10q-88 0 -160.5 40.5t-123.5 116t-79 179.5 t-28 234z" />
<glyph unicode="&#xe58;" horiz-adv-x="1462" d="M162 358v295q0 95 36 179t102 148t159.5 101t209.5 37h291q120 0 161 40.5t41 107.5v30h169v-30q0 -146 -86 -221t-260 -75h-302q-175 0 -263.5 -92t-88.5 -240v-274q0 -91 53 -154.5t135 -65.5l256 252l276 -248q79 23 121.5 86.5t42.5 149.5q0 95 -55.5 155t-136.5 75 l55 128q64 -6 119 -39.5t94.5 -84.5t62.5 -113.5t23 -127.5q0 -79 -30.5 -147t-80 -120t-113 -84.5t-128.5 -34.5l-250 229l-217 -229q-176 4 -286 98t-110 269z" />
<glyph unicode="&#xe59;" horiz-adv-x="1424" d="M104 560q0 128 31 234.5t87 182.5t133.5 119t167.5 43q65 0 112.5 -14t83.5 -38.5t60 -56.5t45 -70q0 91 50.5 135t125.5 44q77 0 125 -38.5t74 -98.5l53 294h150l-88 -463h-124q-18 69 -55.5 120.5t-97.5 51.5q-66 0 -101 -53.5t-35 -120.5l284 -831h-165l-275 786 q-33 91 -77.5 148t-135.5 57q-60 0 -107.5 -31.5t-81 -89.5t-52 -136.5t-18.5 -170.5q0 -104 21 -186.5t55.5 -140t80 -89.5t93.5 -32q31 0 68.5 11t68.5 29l34 -118q-37 -26 -82 -40.5t-96 -14.5q-83 0 -158.5 38t-131.5 112t-89 181.5t-33 246.5z" />
<glyph unicode="&#xe5b;" horiz-adv-x="2626" d="M144 667q0 110 34 204t97 163.5t153.5 107.5t200.5 38q93 0 169.5 -35.5t130.5 -96t84.5 -137t35.5 -158.5h-139q-12 125 -86 210.5t-199 85.5q-81 0 -143.5 -33t-104 -86t-63.5 -122.5t-22 -140.5q0 -91 32 -166t88 -128t132 -83.5t165 -30.5q148 0 254 74t177.5 185 t109 243.5t44.5 249.5h93l172 -514l133 466h92l151 -440l118 389h74q26 -176 93.5 -281.5t184.5 -105.5q66 0 130 23l40 -106q-55 -18 -102.5 -26.5t-89.5 -8.5q-104 0 -178 60.5t-122 170.5l-104 -353h-77l-160 442l-143 -484h-81l-148 437q-33 -115 -94 -218.5 t-146.5 -179.5t-193.5 -120t-227 -44q-124 0 -226.5 41.5t-178 115.5t-118 174.5t-42.5 217.5z" />
<glyph unicode="&#x2000;" horiz-adv-x="1181" />
<glyph unicode="&#x2001;" horiz-adv-x="2363" />
<glyph unicode="&#x2002;" horiz-adv-x="1181" />
<glyph unicode="&#x2003;" horiz-adv-x="2363" />
<glyph unicode="&#x2004;" horiz-adv-x="787" />
<glyph unicode="&#x2005;" horiz-adv-x="590" />
<glyph unicode="&#x2006;" horiz-adv-x="393" />
<glyph unicode="&#x2007;" horiz-adv-x="393" />
<glyph unicode="&#x2008;" horiz-adv-x="295" />
<glyph unicode="&#x2009;" horiz-adv-x="472" />
<glyph unicode="&#x200a;" horiz-adv-x="131" />
<glyph unicode="&#x2010;" horiz-adv-x="731" d="M69 560v138h593v-138h-593z" />
<glyph unicode="&#x2011;" horiz-adv-x="731" d="M69 560v138h593v-138h-593z" />
<glyph unicode="&#x2012;" horiz-adv-x="731" d="M69 560v138h593v-138h-593z" />
<glyph unicode="&#x2013;" horiz-adv-x="1184" d="M75 530v123h1036v-123h-1036z" />
<glyph unicode="&#x2014;" horiz-adv-x="2288" d="M166 530v123h1956v-123h-1956z" />
<glyph unicode="&#x2018;" horiz-adv-x="480" d="M139 1180q0 44 11.5 98.5t31 110t45 106.5t51.5 90l67 -13q-18 -33 -34.5 -72.5t-28 -77.5t-17.5 -73t-6 -57q0 -35 23 -35q89 0 89 -102q0 -49 -29.5 -77.5t-84.5 -28.5q-56 0 -87 32t-31 99z" />
<glyph unicode="&#x2019;" horiz-adv-x="477" d="M111 1479q0 47 27.5 78t84.5 31q55 0 86 -33.5t31 -101.5v-9q-2 -44 -15 -97t-31 -106t-42.5 -104t-48.5 -88q-18 4 -34 7.5t-35 7.5q36 65 61 145t25 129q0 39 -23 39q-86 0 -86 102z" />
<glyph unicode="&#x201a;" horiz-adv-x="477" d="M111 157q0 49 27.5 77.5t84.5 28.5q55 0 86 -32t31 -99v-12q-2 -44 -15 -96t-31 -106.5t-42.5 -103t-48.5 -85.5l-69 14q16 33 32.5 71t28 74.5t18.5 70.5t7 57q0 39 -23 39q-86 0 -86 102z" />
<glyph unicode="&#x201c;" horiz-adv-x="839" d="M139 1177q0 45 11.5 99.5t31 110t44 106.5t50.5 90l69 -13q-18 -33 -34.5 -72.5t-28 -77.5t-17.5 -73t-6 -58q0 -35 23 -35q86 0 86 -101q0 -49 -28 -78t-83 -29q-56 0 -87 32.5t-31 98.5zM499 1177q0 45 12 99.5t32 110t44 106.5t49 90l70 -13q-18 -33 -34.5 -72.5 t-28 -77.5t-18.5 -73t-7 -58q0 -35 25 -35q86 0 86 -101q0 -49 -29 -78t-84 -29q-115 0 -117 131z" />
<glyph unicode="&#x201d;" horiz-adv-x="839" d="M111 1479q0 47 27.5 78t84.5 31q55 0 86 -33.5t31 -101.5v-9q-2 -44 -15 -97t-31 -106t-42.5 -104t-48.5 -88q-18 4 -34 7.5t-35 7.5q36 65 61 145t25 129q0 39 -23 39q-86 0 -86 102zM470 1479q0 47 30 78t83 31q55 0 87 -33.5t32 -101.5q0 -42 -13 -96t-33 -109.5 t-44 -108.5t-49 -90l-70 15q18 33 34.5 72t28 77.5t18.5 72t7 59.5q0 32 -25 32q-86 0 -86 102z" />
<glyph unicode="&#x201e;" horiz-adv-x="839" d="M111 157q0 49 27.5 77.5t84.5 28.5q55 0 86 -32t31 -99v-12q-2 -44 -15 -96t-31 -106.5t-42.5 -103t-48.5 -85.5l-69 14q16 33 32.5 71t28 74.5t18.5 70.5t7 57q0 39 -23 39q-86 0 -86 102zM470 157q0 49 29 77.5t84 28.5t87 -32t32 -99q0 -44 -12 -98t-32 -110t-45 -107 t-50 -88l-70 14q37 67 62.5 149t25.5 128q0 35 -25 35q-86 0 -86 102z" />
<glyph unicode="&#x2020;" horiz-adv-x="1244" d="M144 976v135h395v448h167v-448h396v-135h-396v-976h-167v976h-395z" />
<glyph unicode="&#x2021;" horiz-adv-x="1244" d="M144 333v135h395v508h-395v135h395v448h167v-448h396v-135h-396v-508h396v-135h-396v-448h-167v448h-395z" />
<glyph unicode="&#x2022;" horiz-adv-x="707" d="M120 797q0 97 58 163.5t176 66.5q117 0 175.5 -66.5t58.5 -159.5q0 -95 -59 -164.5t-178 -69.5q-115 0 -173 67.5t-58 162.5z" />
<glyph unicode="&#x2026;" horiz-adv-x="1637" d="M144 106q0 53 32 90.5t97 37.5q63 0 96 -37.5t33 -90.5t-33 -89.5t-96 -36.5q-64 0 -96.5 36.5t-32.5 89.5zM689 106q0 53 33 90.5t97 37.5q62 0 96 -37.5t34 -90.5t-34 -89.5t-96 -36.5q-64 0 -97 36.5t-33 89.5zM1236 106q0 53 32.5 90.5t96.5 37.5q62 0 96 -37.5 t34 -90.5t-33.5 -89.5t-96.5 -36.5q-64 0 -96.5 36.5t-32.5 89.5z" />
<glyph unicode="&#x202f;" horiz-adv-x="472" />
<glyph unicode="&#x2030;" horiz-adv-x="2584" d="M102 1120q0 81 21 154t62.5 128.5t101.5 89.5t139 34t139 -34t102 -89.5t62.5 -128.5t20.5 -154q0 -82 -20.5 -154t-62.5 -128t-102.5 -89.5t-138.5 -33.5q-79 0 -139 33.5t-101.5 89.5t-62.5 128t-21 154zM243 1120q0 -56 10 -109t32 -93.5t57 -65t84 -24.5t84.5 24.5 t57.5 65t32.5 92.5t10.5 108q0 55 -10.5 108.5t-32.5 95t-57.5 65.5t-84.5 24t-84 -25t-57 -65.5t-32 -93t-10 -107.5zM391 0l847 1528h146l-847 -1528h-146zM1025 384q0 82 21 154.5t62.5 128t101.5 89t139 33.5t140 -33.5t103 -89t63 -128t21 -154.5q0 -81 -21 -154 t-63 -128.5t-103 -88.5t-140 -33t-139 33t-101.5 88.5t-62.5 128.5t-21 154zM1166 384q0 -55 11 -108t33 -94t56.5 -65t82.5 -24q49 0 84.5 24t57.5 65t33 93t11 107t-11 108.5t-33 95t-57.5 66t-84.5 24.5q-48 0 -82.5 -25.5t-56.5 -66t-33 -92.5t-11 -108zM1835 384 q0 82 21 154.5t63 128t101.5 89t138.5 33.5q80 0 139.5 -33.5t101.5 -89t63 -128t21 -154.5q0 -81 -21 -154t-63 -128.5t-102.5 -88.5t-138.5 -33q-79 0 -138.5 33t-101.5 88.5t-63 128.5t-21 154zM1974 384q0 -55 10 -108t32.5 -94t58.5 -65t84 -24q49 0 83.5 24t57.5 65 t34 93t11 107t-11 108.5t-34 95t-57.5 66t-83.5 24.5q-48 0 -84 -25.5t-58.5 -66t-32.5 -92.5t-10 -108z" />
<glyph unicode="&#x2039;" horiz-adv-x="631" d="M93 560l300 414h141l-298 -414l298 -416h-141q-77 103 -152 207t-148 209z" />
<glyph unicode="&#x203a;" horiz-adv-x="629" d="M95 144l298 416l-298 414h141l301 -414l-301 -416h-141z" />
<glyph unicode="&#x2044;" horiz-adv-x="992" d="M-16 0l847 1528h143l-846 -1528h-144z" />
<glyph unicode="&#x205f;" horiz-adv-x="590" />
<glyph unicode="&#x20ac;" horiz-adv-x="1307" d="M104 563q14 53 33 104h150q-5 28 -5 55.5v57.5q0 20 1.5 42.5t3.5 47.5h-183l33 104h161q21 130 70 241.5t124 192t173.5 127t220.5 46.5q113 0 186.5 -34t133.5 -87q-12 -37 -23.5 -73t-23.5 -71q-50 49 -115 76.5t-146 27.5q-176 0 -283.5 -121.5t-142.5 -324.5h526 q-9 -26 -16.5 -52t-16.5 -52h-504q-2 -22 -2 -44.5v-45.5v-59.5t4 -53.5h535q-9 -26 -16.5 -52.5t-16.5 -51.5h-486q40 -199 151.5 -312.5t279.5 -113.5q81 0 147.5 27.5t119.5 76.5q12 -35 23.5 -71t23.5 -73q-60 -55 -134 -86t-192 -31q-117 0 -216 42t-175 120 t-129.5 184.5t-76.5 236.5h-197z" />
<glyph unicode="&#x2113;" horiz-adv-x="910" d="M28 412q62 38 122 79t119 92v514q0 259 78.5 386t219.5 127q120 0 195 -86.5t75 -264.5q0 -218 -99.5 -395t-297.5 -323v-187q0 -126 31 -175t114 -49q67 0 121 23l42 -133q-30 -15 -72 -26.5t-95 -11.5q-176 0 -244 90t-68 284v88q-40 -30 -87.5 -59t-95.5 -61zM440 698 q132 113 182.5 254t50.5 307q0 125 -27.5 176t-75.5 51q-33 0 -57.5 -18.5t-41 -64t-24 -120.5t-7.5 -186v-399z" />
<glyph unicode="&#x2122;" horiz-adv-x="1791" d="M46 1453v106h650v-106l-265 2v-772h-124v772zM842 683v876h149l208 -476q13 -33 29.5 -72t28.5 -79h4q11 40 27.5 79.5t30.5 71.5l209 476h148v-876h-123v532q0 39 3 82t6 78q-14 -26 -26.5 -63t-33.5 -84l-179 -400h-129l-178 400q-20 47 -33 84t-20 63h-7 q4 -35 6.5 -78t2.5 -82v-532h-123z" />
<glyph unicode="&#x2126;" horiz-adv-x="1723" d="M162 886q0 157 48.5 286t139 219t219.5 140t292 50q162 0 292 -50t220.5 -140t139.5 -218.5t49 -286.5q0 -135 -39 -248t-96 -204.5t-123 -162t-119 -118.5h290v-153h-492v115q58 44 127.5 117t131 168t103.5 208.5t42 243.5q0 273 -140.5 419.5t-380.5 146.5 q-248 0 -389 -147t-141 -419q0 -130 41.5 -243.5t102.5 -208.5t130.5 -168t127.5 -117v-115h-491v153h290q-53 48 -118 118.5t-123 162t-96 205.5t-38 247z" />
<glyph unicode="&#x212e;" horiz-adv-x="1892" d="M84 748q0 170 68 312.5t184.5 245.5t274 161.5t336.5 58.5q178 0 335.5 -57.5t274.5 -159t185 -240.5t68 -303v-51h-1412v-423q20 -26 72.5 -69.5t125.5 -85.5t163.5 -73t185.5 -31q99 0 188 27.5t160.5 66.5t123.5 84.5t78 80.5h166q-132 -160 -321.5 -241.5 t-392.5 -81.5q-179 0 -336.5 57.5t-274 160t-184.5 246t-68 315.5zM398 780h1097v421q-26 35 -78 80.5t-125 85.5t-160.5 66.5t-186.5 26.5q-95 0 -185.5 -31t-163.5 -73t-125 -86t-73 -69v-421z" />
<glyph unicode="&#x2202;" horiz-adv-x="1371" d="M93 366q0 115 44 227.5t122.5 201.5t187.5 143.5t240 54.5q79 0 140 -18.5t106.5 -46t78 -62.5t50.5 -67q16 67 23.5 128t7.5 117q0 164 -79 251t-228 87q-85 0 -155.5 -18.5t-135.5 -53.5l-20 132q62 37 152.5 60.5t180.5 23.5q225 0 341.5 -127t116.5 -357 q0 -104 -22 -224t-64.5 -237.5t-107.5 -226.5t-148.5 -192t-187.5 -132.5t-226 -49.5q-215 0 -316 106t-101 280zM269 368q0 -117 63.5 -181t179.5 -64q79 0 157.5 38t146.5 107.5t121.5 169t85.5 224.5q-47 71 -129 128.5t-205 57.5q-99 0 -177.5 -42t-131.5 -110.5 t-82 -154.5t-29 -173z" />
<glyph unicode="&#x2206;" horiz-adv-x="1438" d="M75 0l608 1559h70l610 -1559h-1288zM289 139h855l-426 1136z" />
<glyph unicode="&#x220f;" horiz-adv-x="1404" d="M208 -111v1670h989v-1670h-177v1509h-636v-1509h-176z" />
<glyph unicode="&#x2211;" horiz-adv-x="1254" d="M93 -33l596 764l-552 738v90h974v-131h-764l519 -695l-556 -715h847v-131h-1064v80z" />
<glyph unicode="&#x2212;" horiz-adv-x="1309" d="M174 585v142h963v-142h-963z" />
<glyph unicode="&#x221a;" horiz-adv-x="1200" d="M46 824v134h296l234 -799l396 1400h155l-458 -1587h-176l-257 852h-190z" />
<glyph unicode="&#x221e;" horiz-adv-x="1760" d="M128 715q0 75 25.5 136t72.5 105t111.5 68.5t141.5 24.5q135 0 233 -69.5t165 -162.5h4q29 37 66.5 77.5t88 75.5t111.5 57t133 22q77 0 141.5 -24.5t112 -68.5t74 -104.5t26.5 -131.5t-24.5 -134t-70.5 -108t-111 -71.5t-143 -26.5q-128 0 -231 67t-170 167h-5 q-74 -95 -173 -164.5t-229 -69.5q-77 0 -140.5 24t-109.5 67t-72.5 105t-26.5 139zM269 718q0 -102 62 -162.5t159 -60.5q98 0 181.5 66t143.5 154q-65 100 -149.5 157.5t-179.5 57.5q-106 0 -161.5 -62t-55.5 -150zM945 715q64 -104 147 -162t180 -58q56 0 96.5 18.5 t68 49.5t40.5 70.5t13 84.5q0 88 -53 150t-167 62q-102 0 -177 -56.5t-148 -158.5z" />
<glyph unicode="&#x222b;" horiz-adv-x="983" d="M97 -84l44 133q53 -23 118 -23q90 0 118 57.5t28 183.5v890q0 208 64.5 316t245.5 108q53 0 95 -12t74 -28l-42 -134q-53 22 -120 24q-90 0 -118 -58.5t-28 -182.5v-892q0 -104 -15 -182.5t-49.5 -131.5t-95 -80t-149.5 -27q-53 0 -95 12t-75 27z" />
<glyph unicode="&#x2248;" horiz-adv-x="1309" d="M125 400q19 37 48.5 76.5t69 71t88.5 51t104 19.5q84 0 140.5 -27.5t102.5 -60.5t91.5 -60.5t105.5 -27.5q81 0 136.5 46t92.5 106l84 -84q-47 -86 -126 -153.5t-183 -67.5q-83 0 -141 28t-105.5 61.5t-92.5 61.5t-100 28q-89 0 -142 -47.5t-90 -108.5zM125 822 q19 37 48.5 76t69 70.5t88.5 51.5t104 20q84 0 140.5 -28.5t102.5 -60.5t91.5 -60t105.5 -28q81 0 136.5 46.5t92.5 106.5l84 -86q-47 -86 -126 -152.5t-183 -66.5q-83 0 -141 27.5t-105.5 61t-92.5 61t-100 27.5q-89 0 -141 -47.5t-91 -107.5z" />
<glyph unicode="&#x2260;" horiz-adv-x="1309" d="M181 377v142h347l113 284h-460v142h515l158 393h134l-157 -393h280v-142h-336l-115 -284h451v-142h-506l-150 -377h-133l150 377h-291z" />
<glyph unicode="&#x2264;" horiz-adv-x="1309" d="M150 0v115h974v-115h-974zM150 694v114l974 534v-165l-797 -424l797 -429v-165z" />
<glyph unicode="&#x2265;" horiz-adv-x="1309" d="M185 0v115h974v-115h-974zM185 159v165l798 429l-798 424v165l974 -534v-114z" />
<glyph unicode="&#x25ca;" horiz-adv-x="1348" d="M93 789l530 794h101l530 -792l-530 -791h-101zM257 791l416 -615l413 615l-413 614z" />
<glyph unicode="&#xe000;" horiz-adv-x="1122" d="M0 0v1122h1122v-1122h-1122z" />
<glyph unicode="&#xf700;" horiz-adv-x="1244" d="M42 1141q92 75 223 125t276 50q172 0 301 -71l123 142h199l-197 -234q82 -84 122 -201t40 -260q0 -153 -41.5 -279t-116.5 -218.5t-179.5 -143.5t-228.5 -51h-146l-130 534q-11 54 -62 54h-88v150h101q93 0 143 -35.5t70 -132.5l97 -420h33q71 0 138 36.5t119 104t84 170 t32 233.5q0 238 -106 355t-304 117q-137 0 -250 -46t-197 -115z" />
<glyph unicode="&#xf701;" d="M-1345 1477v143h868v-143h-868z" />
<glyph unicode="&#xf702;" d="M-1345 1477v143h702v217h166v-360h-868z" />
<glyph unicode="&#xf703;" d="M-1345 1477v143h533q-12 23 -12 51q0 84 56.5 141.5t138.5 57.5q81 0 137.5 -58t56.5 -141q0 -81 -56.5 -137.5t-137.5 -56.5h-29h-687zM-711 1674q0 -36 24.5 -60t57.5 -24q35 0 58 24t23 60q0 37 -23 59.5t-58 22.5q-33 0 -57.5 -23t-24.5 -59z" />
<glyph unicode="&#xf704;" d="M-1345 1477v143h451v217h149v-221h120v221h148v-360h-868z" />
<glyph unicode="&#xf705;" d="M-801 1477v376h172v-376h-172z" />
<glyph unicode="&#xf706;" d="M-1083 1696v144h180q75 0 106 -33.5t31 -105.5v-44q0 -16 6.5 -26.5t32.5 -10.5h310v-143h-395q-60 0 -83.5 35.5t-23.5 90.5v47q0 26 -8 36t-36 10h-120z" />
<glyph unicode="&#xf707;" d="M-1292 1601q0 75 53.5 137t158.5 77l115 -112l115 114q88 -7 137 -57t49 -137q0 -12 -1.5 -25t-3.5 -24q53 28 70.5 74t17.5 104q0 41 -6.5 70t-19.5 53h172q7 -21 13.5 -47t6.5 -72q0 -53 -18 -103t-54 -88.5t-89 -63t-120 -24.5h-103l-13 34q22 30 23 72q0 79 -70 86 q-26 -20 -52 -43t-54 -43l-99 84q-33 -5 -52 -29.5t-19 -54.5q0 -28 4 -53.5t18 -57.5h-157q-11 29 -16.5 65.5t-5.5 63.5z" />
<glyph unicode="&#xf708;" d="M-1002 1650v130l192 -5l-7 179h164l-7 -179l199 5v-130l-199 4l7 -177h-164l7 177z" />
<glyph unicode="&#xf709;" d="M-949 1472v78q0 102 60.5 161.5t179.5 59.5h232v-151h-181q-106 0 -106 -94v-54h-185z" />
<glyph unicode="&#xf70a;" d="M-349 1477v376h170v-376h-170z" />
<glyph unicode="&#xf70b;" d="M-696 1696v144h180q62 0 99 -28t37 -90v-65q0 -16 7 -26.5t33 -10.5h322v-143h-408q-60 0 -83 35.5t-23 90.5v47q0 26 -8 36t-36 10h-120z" />
<glyph unicode="&#xf70c;" d="M-884 1601q0 75 53.5 137t157.5 77l125 -112l122 114q88 -7 138 -57t50 -137q0 -12 -1.5 -25t-3.5 -24q53 28 78.5 74t25.5 104q0 41 -7 70t-18 53h169q6 -21 13.5 -47t7.5 -72q0 -53 -21 -103t-60.5 -88.5t-93.5 -63t-124 -24.5h-100l-16 34q23 30 23 72q0 79 -67 86 l-115 -86l-110 84q-32 -5 -50.5 -29.5t-18.5 -54.5q0 -28 3.5 -53.5t17.5 -57.5h-157q-12 29 -16.5 65.5t-4.5 63.5z" />
<glyph unicode="&#xf70d;" d="M-534 1650v130l192 -5l-7 179h164l-9 -179l196 5v-130l-196 4l9 -177h-164l7 177z" />
<glyph unicode="&#xf70e;" d="M-530 1472v78q0 102 60.5 161.5t180.5 59.5h236v-151h-185q-107 0 -107 -94v-54h-185z" />
<glyph unicode="&#xf70f;" horiz-adv-x="2126" d="M115 935q21 71 70 141t120.5 123t162 85t194.5 32q126 0 218 -36.5t154.5 -103.5t92.5 -159t30 -200v-384q0 -303 307 -303q160 0 234.5 76t74.5 227v863h175v-863q0 -118 -34.5 -203.5t-97 -141t-151.5 -82t-198 -26.5t-199.5 26.5t-153.5 82t-98 141t-35 203.5v384 q0 172 -79.5 260.5t-239.5 88.5q-123 0 -221.5 -61t-139.5 -158q46 -44 92.5 -86t94.5 -86q-132 -60 -132 -208v-357q0 -64 61 -64h124v-146h-168q-91 0 -141.5 54t-50.5 143v344q0 75 33 137t96 93q-49 39 -97.5 81t-97.5 83z" />
<glyph unicode="&#xf710;" d="M-985 1674v90h166v-70q0 -75 74 -74h507v-143h-528q-220 0 -219 197z" />
<glyph unicode="&#xf711;" d="M-951 1659q0 46 17.5 87t46 70.5t68 47t86.5 17.5q92 0 156.5 -63.5t64.5 -158.5t-64.5 -157t-156.5 -62q-47 0 -86.5 16t-68 46t-46 70.5t-17.5 86.5zM-833 1661q0 -46 30 -76t70 -30q44 0 74 30.5t30 75.5q0 46 -30 75.5t-74 29.5q-40 0 -70 -29.5t-30 -75.5z" />
<glyph unicode="&#xf712;" d="M-1232 1701q0 46 16.5 91t50.5 80t85 55.5t122 20.5h477v-133h-470q-63 0 -90.5 -35t-27.5 -82q0 -44 27.5 -72.5t78.5 -28.5q44 0 72 28.5t37 63.5h104q18 -69 112 -69h157v-143h-148q-56 0 -102 29t-68 79q-16 -50 -64.5 -84t-124.5 -34q-57 0 -103 19.5t-77 52.5 t-47.5 74t-16.5 88z" />
<glyph unicode="&#xf713;" d="M-638 1954v303h163v-303h-163z" />
<glyph unicode="&#xf714;" d="M-936 2150v138h188q60 0 85 -31t25 -93v-40q0 -32 33 -32h308v-138h-391q-51 0 -75.5 31t-24.5 84v42q0 18 -5.5 28.5t-28.5 10.5h-114z" />
<glyph unicode="&#xf715;" d="M-1058 2067q0 66 49 124.5t143 69.5l115 -97l106 99q86 -4 128 -50.5t42 -120.5v-22t-2 -22q47 20 64.5 63.5t17.5 103.5q0 53 -24 99h160q5 -18 11.5 -40t6.5 -61q0 -47 -17.5 -93t-52 -83.5t-84 -60t-113.5 -22.5h-84l-14 34q21 26 21 60q0 32 -19 52t-43 24l-108 -79 l-104 75q-22 -2 -36.5 -24t-14.5 -48q0 -21 4.5 -44t19.5 -56h-152q-12 31 -16 62t-4 57z" />
<glyph unicode="&#xf716;" d="M-795 2096v123l166 -4l-5 148h153l-5 -148l168 4v-123l-168 6l5 -148h-153l5 148z" />
<glyph unicode="&#xf717;" d="M-780 1752v72q0 92 56.5 147.5t168.5 55.5h210v-143h-174q-90 0 -89 -84v-48h-172z" />
<glyph unicode="&#xf718;" d="M-486 -541h132q91 0 133 -43t42 -143v-215h-170v202q0 53 -51 53h-86v146z" />
<glyph unicode="&#xf719;" d="M-870 -541h285v-151q0 -81 26.5 -113t92.5 -32q67 0 94 32t27 113v151h166v-188q0 -115 -72.5 -175.5t-214.5 -60.5q-141 0 -212.5 60t-71.5 176v46h-120v142z" />
<glyph unicode="&#xf71a;" d="M-417 -667q0 56 42 96.5t97 40.5q60 0 100.5 -40.5t40.5 -96.5q0 -55 -40.5 -95.5t-100.5 -40.5q-55 0 -97 40.5t-42 95.5z" />
<glyph unicode="&#xf71b;" horiz-adv-x="1409" d="M75 0v146h95q32 0 44.5 16.5t12.5 45.5v322q0 71 34.5 134t94.5 93l-222 173q21 71 72 142.5t126 124.5t171 86t206 33q129 0 226 -36.5t163 -103.5t100 -159t34 -200v-1234h-216q-60 53 -138.5 92.5t-183.5 39.5q-113 0 -191.5 -34.5t-153.5 -95.5q-11 33 -22.5 68 t-23.5 69q64 60 155.5 102t217.5 42q110 0 215 -47.5t164 -112.5v1111q0 172 -89 260.5t-257 88.5q-139 0 -244 -63t-143 -158l215 -183q-135 -58 -135 -209v-359q0 -90 -52 -142t-140 -52h-135z" />
<glyph unicode="&#xf71c;" horiz-adv-x="1409" d="M75 0v146h95q32 0 44.5 16.5t12.5 45.5v322q0 71 34.5 134t94.5 93q-55 44 -109.5 86.5t-112.5 86.5q21 71 72 142.5t126 124.5t171 86t206 33q129 0 226 -36.5t163 -103.5t100 -159t34 -200v-1234h-170l-285 172q-37 -86 -116.5 -136t-167.5 -50q-86 0 -162.5 21 t-122.5 54q11 37 23 74t23 74q47 -33 110.5 -57t116.5 -24q98 0 167.5 66t89.5 165l317 -189v1064q0 172 -89 260.5t-257 88.5q-139 0 -244 -63t-143 -158l164 -133l51 -50q-135 -58 -135 -209v-359q0 -90 -52 -142t-140 -52h-135z" />
<glyph unicode="&#xf71d;" horiz-adv-x="1515" d="M183 0v1296h171v-752q0 -95 -3.5 -178.5t-14.5 -168.5h2q20 71 42 133.5t53 120.5l250 481h141l256 -479q33 -57 56 -126.5t41 -129.5h6q-11 85 -16 168.5t-5 178.5v257q0 97 -43 144.5t-114 47.5h-47q-7 18 -13 37t-13 37q62 79 125 158.5t126 161.5h192 q-64 -77 -128 -153.5t-132 -150.5q104 -14 161 -91.5t57 -188.5v-803h-189l-318 614q-28 53 -46 105t-23 78h-4q-7 -26 -25.5 -78t-44.5 -105l-310 -614h-190z" />
<glyph horiz-adv-x="1080" d="M-951 1659q0 46 17.5 87t46 70.5t68 47t86.5 17.5q92 0 156.5 -63.5t64.5 -158.5t-64.5 -157t-156.5 -62q-47 0 -86.5 16t-68 46t-46 70.5t-17.5 86.5zM-833 1661q0 -46 30 -76t70 -30q44 0 74 30.5t30 75.5q0 46 -30 75.5t-74 29.5q-40 0 -70 -29.5t-30 -75.5zM23 1164 q35 28 82.5 56t104.5 48.5t120 34t125 13.5q225 0 336.5 -124.5t111.5 -351.5v-840h-176v840q0 166 -71 246t-212 80q-111 0 -209 -40t-166 -94z" />
<glyph d="M-945 1667q0 42 14.5 77.5t44 61t76 36.5t112.5 4q-33 33 -33 84q0 44 38 78.5t121 34.5h130l27 -115h-126q-26 0 -38.5 -15.5t-12.5 -33.5q0 -44 55 -72l-33 -85q-32 9 -63 13.5t-65 4.5q-98 0 -99 -73q0 -35 28.5 -56t79.5 -21q26 0 50.5 2t55.5 14v-102 q-28 -16 -58 -22.5t-72 -6.5q-44 0 -85.5 11t-74 34.5t-52.5 59.5t-20 87z" />
</font>
</defs>
</svg>
